<svg xmlns="http://www.w3.org/2000/svg" xmlns:xlink="http://www.w3.org/1999/xlink" width="500" zoomAndPan="magnify" viewBox="0 0 375 374.999991" height="500" preserveAspectRatio="xMidYMid meet" version="1.0"><defs><g/><clipPath id="08932aa786"><path d="M 116.332031 95.386719 L 258.832031 95.386719 L 258.832031 240.136719 L 116.332031 240.136719 Z M 116.332031 95.386719 " clip-rule="nonzero"/></clipPath></defs><path fill="#ff9300" d="M 215.914062 223.691406 C 215.859375 223.882812 215.800781 224.085938 215.746094 224.277344 C 215.648438 224.609375 215.546875 224.933594 215.453125 225.253906 C 215.394531 225.433594 215.34375 225.621094 215.285156 225.800781 C 215.175781 226.144531 215.066406 226.480469 214.953125 226.8125 C 214.90625 226.957031 214.859375 227.109375 214.8125 227.242188 C 214.652344 227.707031 214.492188 228.164062 214.328125 228.605469 C 214.304688 228.675781 214.277344 228.742188 214.25 228.808594 C 214.113281 229.179688 213.972656 229.542969 213.832031 229.898438 C 213.773438 230.046875 213.710938 230.191406 213.652344 230.332031 C 213.542969 230.59375 213.433594 230.859375 213.324219 231.113281 C 213.257812 231.269531 213.1875 231.40625 213.117188 231.574219 C 213.015625 231.800781 212.914062 232.03125 212.824219 232.246094 C 212.75 232.402344 212.671875 232.542969 212.597656 232.703125 C 212.523438 232.863281 212.433594 233.042969 212.347656 233.207031 C 212.960938 235.835938 214.542969 237.722656 216.617188 238.273438 C 218.320312 238.726562 220.171875 238.257812 221.832031 236.949219 C 223.542969 235.597656 224.835938 233.53125 225.476562 231.128906 C 226.089844 228.84375 225.921875 226.949219 224.972656 225.5 C 224.144531 224.234375 222.6875 223.292969 220.757812 222.777344 C 218.992188 222.308594 217.457031 222.335938 216.167969 222.851562 C 216.074219 223.132812 215.992188 223.410156 215.914062 223.691406 Z M 215.914062 223.691406 " fill-opacity="1" fill-rule="nonzero"/><path fill="#ff9300" d="M 250.125 142.222656 C 251.578125 135.871094 252.25 129.433594 252.144531 122.917969 C 252.035156 116.402344 251.152344 109.992188 249.488281 103.691406 C 249.398438 103.34375 249.285156 103.003906 249.148438 102.671875 C 249.015625 102.339844 248.859375 102.019531 248.6875 101.707031 C 248.511719 101.394531 248.316406 101.09375 248.101562 100.804688 C 247.890625 100.515625 247.660156 100.242188 247.410156 99.984375 C 247.164062 99.726562 246.898438 99.484375 246.621094 99.257812 C 246.34375 99.035156 246.050781 98.828125 245.746094 98.636719 C 245.441406 98.449219 245.125 98.28125 244.800781 98.132812 C 244.472656 97.984375 244.140625 97.855469 243.796875 97.75 C 243.457031 97.644531 243.109375 97.558594 242.753906 97.496094 C 242.402344 97.433594 242.046875 97.394531 241.6875 97.375 C 241.332031 97.359375 240.972656 97.363281 240.613281 97.390625 C 240.257812 97.417969 239.902344 97.46875 239.550781 97.542969 C 239.203125 97.617188 238.855469 97.710938 238.515625 97.824219 C 238.179688 97.941406 237.847656 98.078125 237.527344 98.238281 C 237.203125 98.394531 236.894531 98.574219 236.59375 98.769531 C 236.296875 98.96875 236.011719 99.183594 235.738281 99.417969 C 226.871094 107.039062 216.863281 113.730469 215.03125 114.945312 C 223.402344 117.816406 230.972656 122.105469 237.734375 127.8125 C 242.628906 131.960938 246.757812 136.765625 250.125 142.222656 Z M 250.125 142.222656 " fill-opacity="1" fill-rule="nonzero"/><path fill="#ff9300" d="M 165.679688 232.375 C 165.578125 232.171875 165.480469 231.949219 165.382812 231.734375 C 165.308594 231.5625 165.226562 231.398438 165.152344 231.21875 C 165.046875 230.980469 164.941406 230.730469 164.839844 230.480469 C 164.769531 230.316406 164.699219 230.15625 164.628906 229.984375 C 164.5 229.660156 164.371094 229.328125 164.246094 228.988281 L 164.121094 228.671875 C 163.957031 228.21875 163.792969 227.757812 163.628906 227.285156 L 163.453125 226.753906 C 163.351562 226.445312 163.246094 226.136719 163.160156 225.8125 C 163.09375 225.605469 163.027344 225.386719 162.964844 225.171875 C 162.875 224.878906 162.777344 224.585938 162.6875 224.265625 C 162.621094 224.039062 162.554688 223.800781 162.492188 223.566406 C 162.425781 223.332031 162.34375 223.0625 162.273438 222.796875 C 161.59375 222.550781 160.894531 222.433594 160.171875 222.441406 C 159.371094 222.449219 158.585938 222.5625 157.816406 222.777344 C 155.886719 223.289062 154.429688 224.230469 153.601562 225.496094 C 152.65625 226.945312 152.480469 228.839844 153.09375 231.125 C 154.402344 236.019531 158.375 239.222656 161.957031 238.269531 C 163.984375 237.734375 165.550781 235.902344 166.191406 233.359375 C 166.113281 233.207031 166.03125 233.042969 165.953125 232.882812 Z M 165.679688 232.375 " fill-opacity="1" fill-rule="nonzero"/><path fill="#ff9300" d="M 189.367188 218.695312 C 189.261719 218.722656 189.160156 218.722656 189.054688 218.695312 L 160.976562 211.164062 C 161.578125 214.875 162.363281 218.550781 163.332031 222.1875 C 164.535156 226.628906 165.878906 230.265625 167.335938 232.988281 C 169.34375 236.75 171.488281 238.65625 173.714844 238.65625 L 173.789062 238.65625 C 175.375 238.636719 176.605469 238.089844 177.542969 236.988281 C 180.394531 233.660156 179.417969 226.503906 179.410156 226.433594 C 179.375 226.261719 179.40625 226.101562 179.507812 225.960938 C 179.605469 225.816406 179.742188 225.730469 179.917969 225.707031 C 180.089844 225.683594 180.246094 225.726562 180.382812 225.835938 C 180.519531 225.945312 180.59375 226.085938 180.605469 226.261719 C 180.644531 226.527344 181.378906 231.875 179.679688 235.789062 L 198.75 235.789062 C 197.050781 231.875 197.785156 226.527344 197.824219 226.261719 C 197.847656 226.09375 197.925781 225.960938 198.058594 225.859375 C 198.191406 225.761719 198.34375 225.722656 198.507812 225.746094 C 198.675781 225.769531 198.808594 225.847656 198.910156 225.980469 C 199.011719 226.117188 199.046875 226.265625 199.023438 226.433594 C 199.023438 226.503906 198.035156 233.660156 200.886719 236.988281 C 201.828125 238.089844 203.058594 238.636719 204.640625 238.65625 L 204.699219 238.65625 C 206.957031 238.65625 209.117188 236.699219 211.175781 232.832031 C 212.386719 230.429688 213.375 227.945312 214.148438 225.371094 C 214.445312 224.382812 214.765625 223.34375 215.058594 222.257812 C 216.359375 217.484375 217.144531 213.027344 217.445312 211.171875 Z M 189.367188 218.695312 " fill-opacity="1" fill-rule="nonzero"/><path fill="#db0e0e" d="M 213.765625 210.894531 C 205.972656 211.617188 197.253906 211.832031 187.5625 211.832031 C 179.757812 211.832031 172.578125 211.691406 166.003906 211.246094 L 189.199219 217.46875 Z M 213.765625 210.894531 " fill-opacity="1" fill-rule="nonzero"/><path fill="#ff0000" d="M 142.035156 207.347656 C 140.523438 207.617188 128.066406 210.234375 128.746094 224.195312 C 132.535156 221.667969 147.707031 212.570312 161.25 218.851562 C 160.339844 214.929688 159.820312 211.714844 159.671875 210.734375 C 153.117188 210.046875 147.242188 208.980469 142.035156 207.347656 Z M 142.035156 207.347656 " fill-opacity="1" fill-rule="nonzero"/><path fill="#ff9300" d="M 137.410156 127.8125 C 144.164062 122.113281 151.71875 117.828125 160.078125 114.957031 C 158.3125 113.78125 148.257812 107.074219 139.351562 99.417969 C 139.078125 99.183594 138.792969 98.96875 138.496094 98.769531 C 138.195312 98.570312 137.886719 98.394531 137.5625 98.234375 C 137.242188 98.078125 136.910156 97.941406 136.574219 97.824219 C 136.234375 97.707031 135.886719 97.613281 135.539062 97.539062 C 135.1875 97.46875 134.832031 97.417969 134.476562 97.390625 C 134.117188 97.363281 133.757812 97.355469 133.402344 97.375 C 133.042969 97.390625 132.6875 97.429688 132.335938 97.492188 C 131.980469 97.554688 131.632812 97.640625 131.292969 97.746094 C 130.949219 97.851562 130.613281 97.980469 130.289062 98.128906 C 129.960938 98.277344 129.648438 98.445312 129.34375 98.632812 C 129.039062 98.820312 128.746094 99.027344 128.464844 99.253906 C 128.1875 99.480469 127.925781 99.722656 127.675781 99.980469 C 127.429688 100.238281 127.199219 100.511719 126.984375 100.800781 C 126.769531 101.085938 126.578125 101.386719 126.402344 101.699219 C 126.226562 102.011719 126.070312 102.335938 125.9375 102.667969 C 125.800781 103 125.6875 103.335938 125.597656 103.683594 C 123.933594 110 123.046875 116.421875 122.945312 122.953125 C 122.839844 129.480469 123.515625 135.929688 124.976562 142.292969 C 128.351562 136.804688 132.496094 131.980469 137.410156 127.8125 Z M 137.410156 127.8125 " fill-opacity="1" fill-rule="nonzero"/><path fill="#db7700" d="M 249.960938 144.246094 C 249.875 144.160156 249.820312 144.0625 249.789062 143.949219 C 241.5 129.636719 226.917969 118.949219 208.773438 114.242188 C 205.425781 113.375 202.039062 112.726562 198.605469 112.296875 C 196.757812 112.0625 194.886719 111.886719 192.984375 111.769531 C 191.199219 111.660156 189.394531 111.605469 187.574219 111.605469 C 185.972656 111.605469 184.386719 111.648438 182.816406 111.730469 C 180.984375 111.824219 179.175781 111.980469 177.394531 112.191406 C 173.964844 112.585938 170.574219 113.199219 167.222656 114.023438 C 137.996094 121.257812 117.796875 143.933594 117.796875 172.332031 C 117.796875 191.746094 127.300781 201.386719 142.179688 206.125 C 142.242188 206.136719 142.300781 206.152344 142.355469 206.179688 C 154.585938 210.035156 170.414062 210.621094 187.574219 210.621094 C 206.023438 210.621094 222.933594 209.949219 235.488281 205.257812 L 235.546875 205.234375 C 248.933594 200.214844 257.347656 190.605469 257.347656 172.332031 C 257.367188 167.410156 256.75 162.566406 255.5 157.804688 C 254.246094 153.042969 252.402344 148.523438 249.960938 144.246094 Z M 250.164062 184.40625 C 241.25 190.953125 222.011719 197.574219 208.3125 187.539062 C 202.933594 183.601562 196.976562 181.667969 192.925781 180.757812 C 189.566406 180 186.203125 180 182.84375 180.757812 C 178.804688 181.667969 172.863281 183.585938 167.46875 187.539062 C 162.40625 191.25 156.578125 192.683594 150.804688 192.683594 C 140.957031 192.683594 131.234375 188.523438 125.621094 184.40625 C 123.878906 183.125 122.894531 181.496094 122.78125 179.699219 C 122.625 177.152344 124.117188 174.371094 127.199219 171.464844 C 133.90625 165.132812 144.351562 156.921875 157.792969 158.539062 C 166.039062 159.558594 173.996094 161.679688 181.660156 164.894531 C 183.652344 165.730469 185.734375 166.148438 187.894531 166.148438 C 190.058594 166.148438 192.140625 165.730469 194.132812 164.894531 C 201.796875 161.679688 209.753906 159.558594 218 158.539062 C 231.441406 156.921875 241.886719 165.132812 248.574219 171.441406 C 251.664062 174.359375 253.15625 177.136719 252.988281 179.675781 C 252.886719 181.496094 251.910156 183.125 250.164062 184.40625 Z M 250.164062 184.40625 " fill-opacity="1" fill-rule="nonzero"/><path fill="#ff9300" d="M 249.960938 144.246094 C 249.875 144.160156 249.820312 144.0625 249.789062 143.949219 C 241.5 129.636719 226.917969 118.949219 208.773438 114.242188 C 205.425781 113.375 202.039062 112.726562 198.605469 112.296875 C 196.757812 112.0625 194.886719 111.886719 192.984375 111.769531 C 191.199219 111.660156 189.394531 111.605469 187.574219 111.605469 C 185.972656 111.605469 184.386719 111.648438 182.816406 111.730469 C 180.984375 111.824219 179.175781 111.980469 177.394531 112.191406 C 173.964844 112.585938 170.574219 113.199219 167.222656 114.023438 C 140.863281 120.550781 121.851562 139.636719 118.371094 164.152344 C 118.210938 165.917969 118.125 167.714844 118.121094 169.546875 C 118.121094 188.960938 127.628906 198.597656 142.507812 203.339844 C 142.570312 203.347656 142.628906 203.367188 142.683594 203.394531 C 154.914062 207.25 170.738281 207.835938 187.898438 207.835938 C 206.347656 207.835938 223.261719 207.160156 235.816406 202.46875 L 235.875 202.449219 C 247.324219 198.152344 255.132812 190.492188 257.152344 176.933594 C 257.277344 175.460938 257.347656 173.933594 257.347656 172.332031 C 257.367188 167.410156 256.75 162.566406 255.5 157.804688 C 254.246094 153.042969 252.402344 148.523438 249.960938 144.246094 Z M 249.960938 144.246094 " fill-opacity="1" fill-rule="nonzero"/><path fill="#ff0000" d="M 218.785156 210.34375 C 218.789062 210.367188 218.789062 210.394531 218.785156 210.421875 C 218.785156 210.464844 218.246094 214.171875 217.152344 218.886719 C 230.714844 212.523438 245.945312 221.648438 249.746094 224.183594 C 250.40625 210.210938 237.449219 206.8125 235.777344 206.433594 C 230.792969 208.277344 225.132812 209.519531 218.785156 210.34375 Z M 218.785156 210.34375 " fill-opacity="1" fill-rule="nonzero"/><path fill="#ff0000" d="M 247.742188 172.320312 C 241.230469 166.175781 231.078125 158.203125 218.148438 159.742188 C 210.007812 160.75 202.160156 162.839844 194.597656 166.011719 C 192.453125 166.910156 190.214844 167.355469 187.890625 167.355469 C 185.566406 167.355469 183.328125 166.910156 181.183594 166.011719 C 173.621094 162.839844 165.773438 160.75 157.632812 159.742188 C 156.546875 159.613281 155.457031 159.546875 154.363281 159.546875 C 142.980469 159.546875 133.992188 166.707031 128.039062 172.320312 C 125.257812 174.945312 123.859375 177.46875 123.992188 179.613281 C 124.082031 181.082031 124.875 182.355469 126.347656 183.4375 C 134.984375 189.769531 153.589844 196.222656 166.765625 186.570312 C 172.324219 182.496094 178.441406 180.519531 182.589844 179.582031 C 186.128906 178.785156 189.667969 178.785156 193.207031 179.582031 C 197.355469 180.519531 203.46875 182.496094 209.03125 186.570312 C 213.875 190.121094 219.457031 191.492188 225.003906 191.492188 C 234.542969 191.492188 243.988281 187.441406 249.4375 183.4375 C 250.910156 182.363281 251.691406 181.082031 251.792969 179.613281 C 251.921875 177.46875 250.523438 174.945312 247.742188 172.320312 Z M 247.742188 172.320312 " fill-opacity="1" fill-rule="nonzero"/><path fill="#db7700" d="M 192.984375 111.785156 L 192.984375 145.238281 C 192.984375 145.570312 192.949219 145.902344 192.886719 146.230469 C 192.820312 146.554688 192.722656 146.875 192.597656 147.183594 C 192.46875 147.492188 192.3125 147.785156 192.125 148.0625 C 191.941406 148.339844 191.730469 148.59375 191.496094 148.832031 C 191.257812 149.066406 191 149.277344 190.722656 149.460938 C 190.445312 149.648438 190.152344 149.804688 189.84375 149.929688 C 189.535156 150.058594 189.21875 150.15625 188.890625 150.21875 C 188.5625 150.285156 188.234375 150.316406 187.898438 150.316406 C 187.566406 150.316406 187.234375 150.285156 186.90625 150.21875 C 186.582031 150.15625 186.261719 150.058594 185.953125 149.929688 C 185.644531 149.804688 185.351562 149.648438 185.074219 149.460938 C 184.796875 149.277344 184.539062 149.066406 184.304688 148.832031 C 184.066406 148.59375 183.859375 148.339844 183.671875 148.0625 C 183.488281 147.785156 183.328125 147.492188 183.203125 147.183594 C 183.074219 146.875 182.976562 146.554688 182.914062 146.230469 C 182.847656 145.902344 182.816406 145.570312 182.816406 145.238281 L 182.816406 111.742188 C 184.386719 111.660156 185.972656 111.621094 187.574219 111.621094 C 189.398438 111.621094 191.203125 111.675781 192.984375 111.785156 Z M 192.984375 111.785156 " fill-opacity="1" fill-rule="nonzero"/><path fill="#db7700" d="M 208.773438 114.253906 L 208.773438 135.023438 C 208.773438 135.355469 208.742188 135.6875 208.675781 136.011719 C 208.613281 136.339844 208.515625 136.660156 208.386719 136.964844 C 208.261719 137.273438 208.101562 137.566406 207.917969 137.84375 C 207.730469 138.121094 207.523438 138.378906 207.285156 138.613281 C 207.050781 138.851562 206.792969 139.0625 206.515625 139.246094 C 206.238281 139.433594 205.945312 139.589844 205.636719 139.714844 C 205.328125 139.84375 205.011719 139.941406 204.683594 140.003906 C 204.355469 140.070312 204.023438 140.101562 203.691406 140.101562 C 203.355469 140.101562 203.027344 140.070312 202.699219 140.003906 C 202.371094 139.941406 202.054688 139.84375 201.746094 139.714844 C 201.4375 139.589844 201.144531 139.433594 200.867188 139.246094 C 200.589844 139.0625 200.332031 138.851562 200.09375 138.613281 C 199.859375 138.378906 199.648438 138.121094 199.464844 137.84375 C 199.277344 137.566406 199.121094 137.273438 198.992188 136.964844 C 198.867188 136.660156 198.769531 136.339844 198.703125 136.011719 C 198.640625 135.6875 198.605469 135.355469 198.605469 135.023438 L 198.605469 112.3125 C 202.039062 112.742188 205.425781 113.390625 208.773438 114.253906 Z M 208.773438 114.253906 " fill-opacity="1" fill-rule="nonzero"/><path fill="#db7700" d="M 177.394531 112.207031 L 177.394531 135.882812 C 177.386719 136.214844 177.347656 136.539062 177.277344 136.859375 C 177.207031 137.179688 177.105469 137.492188 176.972656 137.792969 C 176.84375 138.09375 176.683594 138.378906 176.496094 138.648438 C 176.308594 138.917969 176.097656 139.167969 175.863281 139.398438 C 175.628906 139.628906 175.371094 139.832031 175.097656 140.015625 C 174.824219 140.195312 174.53125 140.347656 174.226562 140.46875 C 173.921875 140.59375 173.609375 140.6875 173.289062 140.75 C 172.964844 140.8125 172.640625 140.84375 172.308594 140.84375 C 171.980469 140.84375 171.65625 140.8125 171.332031 140.75 C 171.007812 140.6875 170.695312 140.59375 170.390625 140.46875 C 170.085938 140.347656 169.796875 140.195312 169.523438 140.015625 C 169.246094 139.832031 168.992188 139.628906 168.757812 139.398438 C 168.519531 139.167969 168.308594 138.917969 168.125 138.648438 C 167.9375 138.378906 167.777344 138.09375 167.644531 137.792969 C 167.515625 137.492188 167.414062 137.179688 167.34375 136.859375 C 167.273438 136.539062 167.230469 136.214844 167.222656 135.882812 L 167.222656 114.039062 C 170.574219 113.210938 173.964844 112.601562 177.394531 112.207031 Z M 177.394531 112.207031 " fill-opacity="1" fill-rule="nonzero"/><path fill="#ffffff" d="M 180.332031 227.214844 C 180.207031 227.035156 180.101562 226.839844 180.023438 226.636719 C 179.945312 226.429688 179.890625 226.21875 179.863281 226 C 179.835938 225.78125 179.832031 225.5625 179.855469 225.34375 C 179.882812 225.125 179.933594 224.914062 180.007812 224.707031 C 180.082031 224.5 180.183594 224.304688 180.304688 224.121094 C 180.425781 223.9375 180.570312 223.773438 180.730469 223.625 C 180.894531 223.476562 181.070312 223.347656 181.265625 223.242188 C 181.457031 223.136719 181.660156 223.054688 181.875 222.996094 C 184.007812 222.40625 185.996094 224.46875 188.203125 224.582031 C 189.585938 224.660156 190.882812 223.992188 192.136719 223.40625 C 193.390625 222.816406 194.800781 222.28125 196.132812 222.664062 C 196.535156 222.796875 196.898438 223 197.222656 223.277344 C 197.542969 223.550781 197.804688 223.878906 198 224.253906 C 198.191406 224.628906 198.308594 225.03125 198.347656 225.453125 C 198.386719 225.875 198.347656 226.289062 198.222656 226.695312 C 197.21875 229.546875 198.8125 232.839844 199.667969 235.742188 C 192.898438 236.390625 186.101562 236.355469 179.304688 235.984375 C 179.925781 233.09375 180.265625 230.167969 180.332031 227.214844 Z M 180.332031 227.214844 " fill-opacity="1" fill-rule="nonzero"/><path fill="#db7700" d="M 245.566406 136.765625 C 247.742188 128.703125 248.128906 117.984375 244.621094 109.757812 C 243.96875 108.230469 242.832031 106.523438 241.175781 106.609375 C 240.292969 106.65625 239.550781 107.199219 238.855469 107.722656 L 223.882812 118.992188 C 231.570312 122.675781 240.273438 130.085938 245.566406 136.765625 Z M 245.566406 136.765625 " fill-opacity="1" fill-rule="nonzero"/><path fill="#db7700" d="M 130.679688 136.765625 C 128.5 128.703125 128.113281 117.984375 131.625 109.757812 C 132.273438 108.230469 133.40625 106.523438 135.066406 106.609375 C 135.949219 106.65625 136.691406 107.199219 137.386719 107.722656 L 152.359375 118.992188 C 144.675781 122.675781 135.972656 130.085938 130.679688 136.765625 Z M 130.679688 136.765625 " fill-opacity="1" fill-rule="nonzero"/><path fill="#ffb55c" d="M 125.449219 143.796875 C 125.761719 143.355469 147.820312 113.707031 187.5625 113.707031 C 225.960938 113.707031 248.132812 141.851562 249.839844 144.097656 C 249.816406 144.050781 249.796875 144.003906 249.78125 143.957031 C 241.492188 129.644531 226.910156 118.953125 208.765625 114.246094 C 205.417969 113.382812 202.027344 112.734375 198.597656 112.300781 C 196.75 112.066406 194.875 111.890625 192.976562 111.777344 C 191.191406 111.667969 189.386719 111.613281 187.5625 111.613281 C 185.960938 111.613281 184.375 111.652344 182.804688 111.734375 C 180.976562 111.832031 179.167969 111.984375 177.386719 112.195312 C 173.957031 112.59375 170.566406 113.203125 167.214844 114.03125 C 148.765625 118.59375 133.886719 129.339844 125.449219 143.796875 Z M 125.449219 143.796875 " fill-opacity="1" fill-rule="nonzero"/><path fill="#e58720" d="M 192.984375 111.785156 L 192.984375 113.886719 C 191.21875 113.761719 189.414062 113.699219 187.574219 113.695312 C 185.953125 113.695312 184.367188 113.746094 182.816406 113.84375 L 182.816406 111.742188 C 184.386719 111.660156 185.972656 111.621094 187.574219 111.621094 C 189.398438 111.621094 191.203125 111.675781 192.984375 111.785156 Z M 192.984375 111.785156 " fill-opacity="1" fill-rule="nonzero"/><path fill="#e58720" d="M 208.773438 114.253906 L 208.773438 116.695312 C 205.433594 115.730469 202.046875 115 198.605469 114.496094 L 198.605469 112.3125 C 202.039062 112.742188 205.425781 113.390625 208.773438 114.253906 Z M 208.773438 114.253906 " fill-opacity="1" fill-rule="nonzero"/><path fill="#e58720" d="M 177.394531 112.207031 L 177.394531 114.371094 C 173.957031 114.820312 170.570312 115.5 167.222656 116.410156 L 167.222656 114.039062 C 170.574219 113.210938 173.964844 112.601562 177.394531 112.207031 Z M 177.394531 112.207031 " fill-opacity="1" fill-rule="nonzero"/><path fill="#e58720" d="M 167.222656 114.039062 C 170.574219 113.210938 173.964844 112.601562 177.394531 112.207031 L 177.394531 114.371094 C 173.957031 114.820312 170.570312 115.5 167.222656 116.410156 Z M 167.222656 114.039062 " fill-opacity="1" fill-rule="nonzero"/><path fill="#e58720" d="M 187.574219 111.621094 C 189.398438 111.621094 191.203125 111.675781 192.984375 111.785156 L 192.984375 113.886719 C 191.21875 113.761719 189.414062 113.699219 187.574219 113.695312 C 185.953125 113.695312 184.367188 113.746094 182.816406 113.84375 L 182.816406 111.742188 C 184.386719 111.660156 185.972656 111.621094 187.574219 111.621094 Z M 187.574219 111.621094 " fill-opacity="1" fill-rule="nonzero"/><path fill="#e58720" d="M 208.773438 114.253906 L 208.773438 116.695312 C 205.433594 115.730469 202.046875 115 198.605469 114.496094 L 198.605469 112.3125 C 202.039062 112.742188 205.425781 113.390625 208.773438 114.253906 Z M 208.773438 114.253906 " fill-opacity="1" fill-rule="nonzero"/><path fill="#ffb55c" d="M 203.691406 187.605469 C 203.691406 188.167969 203.59375 188.726562 203.402344 189.28125 C 203.214844 189.832031 202.929688 190.371094 202.554688 190.890625 C 202.183594 191.410156 201.722656 191.90625 201.179688 192.375 C 200.636719 192.84375 200.019531 193.277344 199.328125 193.675781 C 198.636719 194.074219 197.882812 194.429688 197.070312 194.742188 C 196.253906 195.058594 195.398438 195.320312 194.492188 195.535156 C 193.589844 195.753906 192.65625 195.914062 191.699219 196.027344 C 190.738281 196.136719 189.769531 196.191406 188.792969 196.191406 C 187.8125 196.191406 186.84375 196.136719 185.882812 196.027344 C 184.925781 195.914062 183.992188 195.753906 183.089844 195.535156 C 182.1875 195.320312 181.328125 195.058594 180.515625 194.742188 C 179.699219 194.429688 178.949219 194.074219 178.257812 193.675781 C 177.5625 193.277344 176.945312 192.84375 176.402344 192.375 C 175.859375 191.90625 175.402344 191.410156 175.027344 190.890625 C 174.652344 190.371094 174.371094 189.832031 174.179688 189.28125 C 173.988281 188.726562 173.890625 188.167969 173.890625 187.605469 C 173.890625 187.039062 173.988281 186.480469 174.179688 185.929688 C 174.371094 185.375 174.652344 184.839844 175.027344 184.320312 C 175.402344 183.796875 175.859375 183.304688 176.402344 182.835938 C 176.945312 182.367188 177.5625 181.933594 178.257812 181.53125 C 178.949219 181.132812 179.699219 180.777344 180.515625 180.464844 C 181.328125 180.152344 182.1875 179.886719 183.089844 179.671875 C 183.992188 179.457031 184.925781 179.292969 185.882812 179.183594 C 186.84375 179.074219 187.8125 179.019531 188.792969 179.019531 C 189.769531 179.019531 190.738281 179.074219 191.699219 179.183594 C 192.65625 179.292969 193.589844 179.457031 194.492188 179.671875 C 195.398438 179.886719 196.253906 180.152344 197.070312 180.464844 C 197.882812 180.777344 198.636719 181.132812 199.328125 181.53125 C 200.019531 181.933594 200.636719 182.367188 201.179688 182.835938 C 201.722656 183.304688 202.183594 183.796875 202.554688 184.320312 C 202.929688 184.839844 203.214844 185.375 203.402344 185.929688 C 203.59375 186.480469 203.691406 187.039062 203.691406 187.605469 Z M 203.691406 187.605469 " fill-opacity="1" fill-rule="nonzero"/><path fill="#db0e0e" d="M 235.777344 206.4375 C 230.792969 208.277344 225.132812 209.519531 218.785156 210.34375 C 218.789062 210.367188 218.789062 210.394531 218.785156 210.421875 C 218.785156 210.464844 218.246094 214.171875 217.152344 218.886719 C 218.75 218.140625 220.40625 217.585938 222.132812 217.222656 C 222.398438 216.703125 222.695312 216.203125 223.015625 215.714844 C 223.339844 215.230469 223.691406 214.765625 224.066406 214.320312 C 224.441406 213.875 224.84375 213.449219 225.265625 213.050781 C 225.691406 212.648438 226.136719 212.273438 226.601562 211.921875 C 227.070312 211.574219 227.554688 211.25 228.054688 210.953125 C 228.558594 210.65625 229.078125 210.390625 229.609375 210.152344 C 230.144531 209.914062 230.6875 209.707031 231.242188 209.53125 C 231.800781 209.355469 232.363281 209.210938 232.9375 209.097656 C 233.511719 208.984375 234.085938 208.90625 234.667969 208.855469 C 235.25 208.808594 235.832031 208.792969 236.417969 208.8125 C 237 208.828125 237.578125 208.878906 238.15625 208.964844 C 238.734375 209.046875 239.304688 209.160156 239.871094 209.308594 C 240.4375 209.457031 240.992188 209.636719 241.535156 209.84375 C 242.078125 210.054688 242.609375 210.296875 243.128906 210.566406 C 243.644531 210.835938 244.144531 211.132812 244.628906 211.457031 C 245.113281 211.785156 245.578125 212.136719 246.019531 212.515625 L 245.921875 212.375 C 242.144531 208.0625 236.808594 206.671875 235.777344 206.4375 Z M 235.777344 206.4375 " fill-opacity="1" fill-rule="nonzero"/><path fill="#db0e0e" d="M 142.351562 206.722656 C 147.339844 208.566406 152.992188 209.808594 159.339844 210.628906 C 159.339844 210.65625 161.246094 211.183594 160.292969 211.164062 C 160.246094 211.164062 160.863281 214.460938 161.957031 219.175781 C 160.316406 218.40625 157.664062 217.867188 155.996094 217.511719 C 155.730469 216.992188 155.433594 216.488281 155.109375 216.003906 C 154.785156 215.519531 154.4375 215.054688 154.058594 214.609375 C 153.683594 214.164062 153.285156 213.738281 152.859375 213.339844 C 152.4375 212.9375 151.992188 212.5625 151.523438 212.210938 C 151.058594 211.863281 150.574219 211.539062 150.070312 211.242188 C 149.566406 210.945312 149.050781 210.679688 148.515625 210.441406 C 147.984375 210.203125 147.4375 209.996094 146.882812 209.820312 C 146.328125 209.644531 145.761719 209.5 145.191406 209.386719 C 144.617188 209.273438 144.039062 209.195312 143.457031 209.148438 C 142.878906 209.097656 142.292969 209.082031 141.710938 209.101562 C 141.128906 209.121094 140.546875 209.167969 139.96875 209.253906 C 139.390625 209.335938 138.820312 209.453125 138.257812 209.597656 C 137.691406 209.746094 137.136719 209.925781 136.59375 210.132812 C 136.046875 210.34375 135.515625 210.585938 135 210.855469 C 134.484375 211.125 133.980469 211.421875 133.5 211.746094 C 133.015625 212.074219 132.550781 212.425781 132.105469 212.804688 L 132.210938 212.664062 C 135.984375 208.347656 141.320312 206.960938 142.351562 206.722656 Z M 142.351562 206.722656 " fill-opacity="1" fill-rule="nonzero"/><path fill="#db7700" d="M 209.359375 213.449219 C 210.914062 213.84375 212.117188 215.164062 212.726562 216.648438 C 213.339844 218.132812 213.445312 219.773438 213.433594 221.382812 C 213.398438 225.566406 212.652344 229.621094 211.199219 233.542969 C 213.234375 230.074219 214.839844 226.414062 216.015625 222.566406 C 217.191406 218.71875 217.90625 214.789062 218.160156 210.773438 C 217.589844 210.128906 216.480469 210.300781 215.671875 210.59375 C 213.398438 211.414062 211.628906 212.628906 209.359375 213.449219 Z M 209.359375 213.449219 " fill-opacity="1" fill-rule="nonzero"/><path fill="#db7700" d="M 169.847656 213.449219 C 168.289062 213.84375 167.089844 215.164062 166.476562 216.648438 C 165.863281 218.132812 165.757812 219.773438 165.773438 221.382812 C 165.804688 225.566406 166.550781 229.621094 168.007812 233.542969 C 165.972656 230.074219 164.367188 226.414062 163.191406 222.566406 C 162.015625 218.71875 161.300781 214.789062 161.046875 210.773438 C 161.617188 210.128906 162.71875 210.300781 163.53125 210.59375 C 165.804688 211.414062 167.574219 212.628906 169.847656 213.449219 Z M 169.847656 213.449219 " fill-opacity="1" fill-rule="nonzero"/><path fill="#4f3215" d="M 167.605469 187.703125 C 172.972656 183.773438 178.886719 181.863281 182.914062 180.949219 C 186.246094 180.199219 189.578125 180.199219 192.910156 180.949219 C 196.925781 181.863281 202.84375 183.773438 208.21875 187.703125 C 222 197.800781 241.347656 191.136719 250.316406 184.566406 C 252.109375 183.25 253.117188 181.570312 253.234375 179.699219 C 253.394531 177.085938 251.886719 174.257812 248.746094 171.292969 C 242.027344 164.953125 231.53125 156.714844 218.007812 158.351562 C 209.742188 159.371094 201.769531 161.496094 194.085938 164.71875 C 192.117188 165.542969 190.066406 165.953125 187.929688 165.953125 C 185.796875 165.953125 183.742188 165.542969 181.773438 164.71875 C 174.09375 161.496094 166.117188 159.375 157.851562 158.351562 C 144.308594 156.722656 133.832031 164.96875 127.117188 171.292969 C 123.976562 174.257812 122.464844 177.085938 122.628906 179.699219 C 122.742188 181.570312 123.75 183.25 125.542969 184.566406 C 131.1875 188.707031 140.949219 192.882812 150.863281 192.882812 C 156.636719 192.882812 162.5 191.441406 167.605469 187.703125 Z M 126.46875 183.265625 C 125.054688 182.226562 124.292969 180.996094 124.207031 179.601562 C 124.078125 177.519531 125.457031 175.050781 128.195312 172.46875 C 134.117188 166.878906 143.070312 159.75 154.378906 159.75 C 155.464844 159.75 156.542969 159.8125 157.617188 159.941406 C 165.734375 160.949219 173.5625 163.03125 181.105469 166.195312 C 183.277344 167.105469 185.539062 167.558594 187.890625 167.558594 C 190.242188 167.558594 192.503906 167.105469 194.675781 166.195312 C 202.21875 163.03125 210.046875 160.949219 218.164062 159.941406 C 231.015625 158.402344 241.128906 166.351562 247.605469 172.46875 C 250.339844 175.050781 251.726562 177.519531 251.589844 179.601562 C 251.503906 180.996094 250.742188 182.226562 249.328125 183.265625 C 240.742188 189.566406 222.246094 195.988281 209.152344 186.402344 C 203.558594 182.304688 197.421875 180.320312 193.253906 179.378906 C 189.683594 178.574219 186.117188 178.574219 182.546875 179.378906 C 178.378906 180.320312 172.242188 182.304688 166.648438 186.402344 C 153.558594 195.988281 135.054688 189.566406 126.46875 183.265625 Z M 126.46875 183.265625 " fill-opacity="1" fill-rule="nonzero"/><path fill="#4f3215" d="M 198.699219 186.785156 C 198.492188 186.710938 198.285156 186.722656 198.082031 186.816406 C 197.878906 186.910156 197.742188 187.0625 197.664062 187.273438 C 197.515625 187.695312 197.300781 188.085938 197.023438 188.441406 C 196.746094 188.796875 196.421875 189.097656 196.042969 189.34375 C 195.667969 189.59375 195.261719 189.777344 194.828125 189.890625 C 194.394531 190.007812 193.949219 190.050781 193.5 190.023438 C 193.050781 189.996094 192.617188 189.894531 192.199219 189.726562 C 191.785156 189.558594 191.402344 189.324219 191.0625 189.03125 C 190.722656 188.738281 190.433594 188.398438 190.203125 188.011719 C 189.972656 187.625 189.8125 187.210938 189.714844 186.773438 C 192.339844 186.527344 194.320312 185.457031 194.320312 184.171875 C 194.320312 182.699219 191.742188 181.523438 188.566406 181.523438 C 185.386719 181.523438 182.808594 182.699219 182.808594 184.171875 C 182.808594 185.496094 184.917969 186.59375 187.667969 186.789062 C 187.570312 187.226562 187.40625 187.640625 187.171875 188.023438 C 186.941406 188.410156 186.652344 188.75 186.3125 189.039062 C 185.96875 189.332031 185.589844 189.5625 185.171875 189.730469 C 184.757812 189.898438 184.324219 189.996094 183.875 190.023438 C 183.425781 190.050781 182.984375 190.003906 182.550781 189.890625 C 182.117188 189.773438 181.710938 189.589844 181.335938 189.34375 C 180.960938 189.09375 180.636719 188.792969 180.359375 188.4375 C 180.082031 188.085938 179.867188 187.695312 179.71875 187.273438 C 179.644531 187.0625 179.503906 186.910156 179.300781 186.816406 C 179.101562 186.722656 178.894531 186.710938 178.683594 186.785156 C 178.476562 186.863281 178.324219 187 178.226562 187.203125 C 178.132812 187.402344 178.125 187.609375 178.199219 187.820312 C 178.410156 188.378906 178.699219 188.890625 179.070312 189.363281 C 179.4375 189.832031 179.867188 190.238281 180.355469 190.582031 C 180.847656 190.921875 181.375 191.183594 181.945312 191.363281 C 182.515625 191.546875 183.097656 191.636719 183.695312 191.644531 C 183.996094 191.640625 184.296875 191.617188 184.597656 191.566406 C 185.46875 191.402344 186.265625 191.058594 186.980469 190.53125 C 187.699219 190.007812 188.265625 189.355469 188.6875 188.570312 C 189.113281 189.351562 189.683594 190 190.398438 190.523438 C 191.117188 191.042969 191.914062 191.382812 192.785156 191.542969 C 193.085938 191.59375 193.386719 191.617188 193.691406 191.621094 C 194.289062 191.613281 194.871094 191.519531 195.441406 191.339844 C 196.011719 191.160156 196.539062 190.898438 197.03125 190.558594 C 197.519531 190.214844 197.949219 189.808594 198.316406 189.339844 C 198.683594 188.867188 198.972656 188.355469 199.1875 187.796875 C 199.253906 187.589844 199.242188 187.390625 199.148438 187.191406 C 199.054688 186.996094 198.90625 186.863281 198.699219 186.785156 Z M 198.699219 186.785156 " fill-opacity="1" fill-rule="nonzero"/><path fill="#4f3215" d="M 218.074219 180.367188 C 218.503906 180.367188 218.929688 180.324219 219.351562 180.238281 C 219.769531 180.15625 220.179688 180.03125 220.574219 179.867188 C 220.972656 179.703125 221.347656 179.503906 221.707031 179.265625 C 222.0625 179.027344 222.394531 178.753906 222.695312 178.453125 C 223 178.148438 223.269531 177.820312 223.507812 177.460938 C 223.746094 177.105469 223.949219 176.730469 224.113281 176.332031 C 224.277344 175.9375 224.402344 175.527344 224.484375 175.109375 C 224.566406 174.6875 224.609375 174.261719 224.609375 173.835938 C 224.609375 173.40625 224.566406 172.980469 224.484375 172.558594 C 224.402344 172.140625 224.277344 171.730469 224.113281 171.335938 C 223.949219 170.9375 223.746094 170.5625 223.507812 170.207031 C 223.269531 169.851562 223 169.519531 222.695312 169.21875 C 222.390625 168.914062 222.0625 168.644531 221.703125 168.40625 C 221.347656 168.167969 220.96875 167.964844 220.574219 167.800781 C 220.175781 167.636719 219.769531 167.515625 219.347656 167.429688 C 218.925781 167.347656 218.5 167.304688 218.074219 167.304688 C 217.644531 167.304688 217.21875 167.347656 216.796875 167.429688 C 216.375 167.515625 215.96875 167.640625 215.570312 167.804688 C 215.175781 167.96875 214.796875 168.167969 214.441406 168.40625 C 214.085938 168.644531 213.753906 168.917969 213.453125 169.21875 C 213.148438 169.523438 212.878906 169.851562 212.640625 170.210938 C 212.402344 170.566406 212.199219 170.941406 212.035156 171.339844 C 211.871094 171.734375 211.746094 172.144531 211.664062 172.5625 C 211.582031 172.984375 211.539062 173.410156 211.539062 173.839844 C 211.539062 174.265625 211.582031 174.691406 211.664062 175.113281 C 211.746094 175.53125 211.871094 175.941406 212.035156 176.335938 C 212.199219 176.734375 212.402344 177.109375 212.640625 177.464844 C 212.878906 177.824219 213.148438 178.152344 213.453125 178.457031 C 213.757812 178.757812 214.085938 179.03125 214.441406 179.265625 C 214.800781 179.503906 215.175781 179.707031 215.574219 179.871094 C 215.96875 180.035156 216.378906 180.15625 216.800781 180.242188 C 217.21875 180.324219 217.644531 180.367188 218.074219 180.367188 Z M 218.074219 180.367188 " fill-opacity="1" fill-rule="nonzero"/><path fill="#4f3215" d="M 162.351562 168.289062 C 162.714844 168.511719 163.054688 168.773438 163.367188 169.0625 C 163.683594 169.355469 163.964844 169.675781 164.214844 170.023438 C 164.46875 170.371094 164.679688 170.742188 164.859375 171.132812 C 165.039062 171.519531 165.175781 171.925781 165.273438 172.34375 C 165.375 172.757812 165.429688 173.183594 165.445312 173.609375 C 165.460938 174.039062 165.433594 174.464844 165.363281 174.890625 C 165.296875 175.3125 165.1875 175.722656 165.035156 176.125 C 164.886719 176.527344 164.699219 176.910156 164.472656 177.277344 C 164.246094 177.640625 163.988281 177.980469 163.695312 178.292969 C 163.402344 178.605469 163.082031 178.890625 162.734375 179.140625 C 162.386719 179.390625 162.019531 179.605469 161.628906 179.78125 C 161.238281 179.960938 160.832031 180.097656 160.414062 180.199219 C 159.996094 180.296875 159.574219 180.351562 159.144531 180.367188 C 158.714844 180.382812 158.289062 180.355469 157.867188 180.289062 C 157.441406 180.21875 157.03125 180.109375 156.628906 179.960938 C 156.226562 179.808594 155.84375 179.621094 155.476562 179.398438 C 155.113281 179.171875 154.773438 178.914062 154.460938 178.621094 C 154.144531 178.328125 153.863281 178.007812 153.613281 177.660156 C 153.359375 177.3125 153.148438 176.945312 152.96875 176.554688 C 152.789062 176.164062 152.652344 175.757812 152.554688 175.34375 C 152.453125 174.925781 152.398438 174.503906 152.382812 174.074219 C 152.367188 173.644531 152.394531 173.21875 152.464844 172.796875 C 152.53125 172.371094 152.640625 171.960938 152.792969 171.558594 C 152.941406 171.15625 153.128906 170.773438 153.355469 170.410156 C 153.582031 170.042969 153.839844 169.707031 154.132812 169.390625 C 154.425781 169.078125 154.746094 168.796875 155.09375 168.542969 C 155.441406 168.292969 155.808594 168.078125 156.199219 167.902344 C 156.589844 167.722656 156.996094 167.585938 157.414062 167.488281 C 157.832031 167.386719 158.253906 167.332031 158.683594 167.316406 C 159.109375 167.300781 159.539062 167.328125 159.960938 167.398438 C 160.382812 167.464844 160.796875 167.574219 161.199219 167.726562 C 161.601562 167.875 161.984375 168.0625 162.351562 168.289062 Z M 162.351562 168.289062 " fill-opacity="1" fill-rule="nonzero"/><path fill="#4f3215" d="M 221.628906 226.351562 C 221.628906 226.546875 221.589844 226.738281 221.515625 226.917969 C 221.441406 227.097656 221.332031 227.257812 221.195312 227.398438 C 221.054688 227.535156 220.898438 227.640625 220.714844 227.714844 C 220.535156 227.792969 220.347656 227.828125 220.148438 227.828125 C 219.953125 227.828125 219.765625 227.792969 219.585938 227.714844 C 219.402344 227.640625 219.242188 227.535156 219.105469 227.398438 C 218.964844 227.257812 218.859375 227.097656 218.785156 226.917969 C 218.710938 226.738281 218.671875 226.546875 218.671875 226.351562 C 218.671875 226.15625 218.710938 225.96875 218.785156 225.789062 C 218.859375 225.605469 218.964844 225.445312 219.105469 225.308594 C 219.242188 225.167969 219.402344 225.0625 219.585938 224.988281 C 219.765625 224.914062 219.953125 224.875 220.148438 224.875 C 220.347656 224.875 220.535156 224.914062 220.714844 224.988281 C 220.898438 225.0625 221.054688 225.167969 221.195312 225.308594 C 221.332031 225.445312 221.441406 225.605469 221.515625 225.789062 C 221.589844 225.96875 221.628906 226.15625 221.628906 226.351562 Z M 221.628906 226.351562 " fill-opacity="1" fill-rule="nonzero"/><path fill="#4f3215" d="M 224.582031 229.605469 C 224.582031 229.800781 224.542969 229.988281 224.46875 230.171875 C 224.394531 230.351562 224.285156 230.511719 224.148438 230.648438 C 224.007812 230.789062 223.847656 230.894531 223.667969 230.96875 C 223.488281 231.042969 223.296875 231.082031 223.101562 231.082031 C 222.90625 231.082031 222.71875 231.042969 222.539062 230.96875 C 222.355469 230.894531 222.195312 230.789062 222.058594 230.648438 C 221.917969 230.511719 221.8125 230.351562 221.738281 230.171875 C 221.664062 229.988281 221.625 229.800781 221.625 229.605469 C 221.625 229.410156 221.664062 229.222656 221.738281 229.039062 C 221.8125 228.859375 221.917969 228.699219 222.058594 228.5625 C 222.195312 228.421875 222.355469 228.316406 222.539062 228.242188 C 222.71875 228.167969 222.90625 228.128906 223.101562 228.128906 C 223.296875 228.128906 223.488281 228.167969 223.667969 228.242188 C 223.847656 228.316406 224.007812 228.421875 224.148438 228.5625 C 224.285156 228.699219 224.394531 228.859375 224.46875 229.039062 C 224.542969 229.222656 224.582031 229.410156 224.582031 229.605469 Z M 224.582031 229.605469 " fill-opacity="1" fill-rule="nonzero"/><path fill="#4f3215" d="M 215.652344 231.007812 C 215.5 231.390625 215.425781 231.789062 215.433594 232.203125 C 215.441406 232.617188 215.53125 233.011719 215.699219 233.390625 C 215.871094 233.765625 216.105469 234.097656 216.40625 234.378906 C 216.710938 234.660156 217.054688 234.871094 217.445312 235.011719 C 217.835938 235.15625 218.234375 235.214844 218.648438 235.195312 C 219.0625 235.175781 219.453125 235.074219 219.828125 234.894531 C 220.199219 234.714844 220.523438 234.46875 220.796875 234.15625 C 221.070312 233.847656 221.269531 233.496094 221.402344 233.101562 C 221.988281 231.519531 220.746094 230.910156 219.15625 230.332031 C 217.570312 229.753906 216.230469 229.417969 215.652344 231.007812 Z M 215.652344 231.007812 " fill-opacity="1" fill-rule="nonzero"/><path fill="#4f3215" d="M 160.125 226.207031 C 160.125 226.402344 160.089844 226.59375 160.015625 226.773438 C 159.9375 226.953125 159.832031 227.113281 159.695312 227.253906 C 159.554688 227.390625 159.394531 227.496094 159.214844 227.574219 C 159.03125 227.648438 158.84375 227.683594 158.648438 227.683594 C 158.453125 227.683594 158.265625 227.648438 158.082031 227.574219 C 157.902344 227.496094 157.742188 227.390625 157.605469 227.253906 C 157.464844 227.113281 157.359375 226.953125 157.285156 226.773438 C 157.207031 226.59375 157.171875 226.402344 157.171875 226.207031 C 157.171875 226.011719 157.207031 225.824219 157.285156 225.644531 C 157.359375 225.460938 157.464844 225.300781 157.605469 225.164062 C 157.742188 225.027344 157.902344 224.917969 158.082031 224.84375 C 158.265625 224.769531 158.453125 224.730469 158.648438 224.730469 C 158.84375 224.730469 159.03125 224.769531 159.214844 224.84375 C 159.394531 224.917969 159.554688 225.027344 159.695312 225.164062 C 159.832031 225.300781 159.9375 225.460938 160.015625 225.644531 C 160.089844 225.824219 160.125 226.011719 160.125 226.207031 Z M 160.125 226.207031 " fill-opacity="1" fill-rule="nonzero"/><path fill="#4f3215" d="M 157.175781 229.460938 C 157.175781 229.65625 157.140625 229.847656 157.0625 230.027344 C 156.988281 230.207031 156.882812 230.367188 156.742188 230.503906 C 156.605469 230.644531 156.445312 230.75 156.265625 230.824219 C 156.082031 230.902344 155.894531 230.9375 155.699219 230.9375 C 155.503906 230.9375 155.3125 230.902344 155.132812 230.824219 C 154.953125 230.75 154.792969 230.644531 154.652344 230.503906 C 154.515625 230.367188 154.410156 230.207031 154.332031 230.027344 C 154.257812 229.847656 154.222656 229.65625 154.222656 229.460938 C 154.222656 229.265625 154.257812 229.078125 154.332031 228.898438 C 154.410156 228.714844 154.515625 228.554688 154.652344 228.417969 C 154.792969 228.277344 154.953125 228.171875 155.132812 228.097656 C 155.3125 228.023438 155.503906 227.984375 155.699219 227.984375 C 155.894531 227.984375 156.082031 228.023438 156.265625 228.097656 C 156.445312 228.171875 156.605469 228.277344 156.742188 228.417969 C 156.882812 228.554688 156.988281 228.714844 157.0625 228.898438 C 157.140625 229.078125 157.175781 229.265625 157.175781 229.460938 Z M 157.175781 229.460938 " fill-opacity="1" fill-rule="nonzero"/><path fill="#4f3215" d="M 159.660156 230.183594 C 158.070312 230.773438 156.832031 231.363281 157.414062 232.960938 C 157.542969 233.347656 157.746094 233.699219 158.019531 234.007812 C 158.292969 234.316406 158.617188 234.558594 158.988281 234.734375 C 159.359375 234.914062 159.753906 235.011719 160.164062 235.03125 C 160.578125 235.050781 160.976562 234.992188 161.363281 234.851562 C 161.75 234.707031 162.09375 234.496094 162.398438 234.214844 C 162.699219 233.9375 162.933594 233.609375 163.101562 233.234375 C 163.273438 232.855469 163.363281 232.464844 163.371094 232.050781 C 163.382812 231.640625 163.3125 231.242188 163.160156 230.859375 C 162.566406 229.273438 161.230469 229.605469 159.660156 230.183594 Z M 159.660156 230.183594 " fill-opacity="1" fill-rule="nonzero"/><g clip-path="url(#08932aa786)"><path fill="#4f3215" d="M 238.167969 205.703125 C 252.019531 199.789062 258.773438 188.867188 258.773438 172.332031 C 258.792969 167.3125 258.164062 162.375 256.886719 157.519531 C 255.609375 152.664062 253.730469 148.054688 251.242188 143.695312 C 252.863281 137.054688 253.640625 130.316406 253.574219 123.484375 C 253.511719 116.648438 252.609375 109.929688 250.867188 103.320312 C 250.761719 102.914062 250.628906 102.519531 250.472656 102.132812 C 250.3125 101.746094 250.132812 101.367188 249.929688 101.003906 C 249.722656 100.640625 249.496094 100.289062 249.25 99.953125 C 249 99.617188 248.730469 99.296875 248.441406 98.996094 C 248.152344 98.695312 247.84375 98.410156 247.519531 98.148438 C 247.191406 97.886719 246.851562 97.644531 246.496094 97.425781 C 246.140625 97.203125 245.773438 97.007812 245.390625 96.835938 C 245.011719 96.660156 244.621094 96.511719 244.222656 96.390625 C 243.820312 96.265625 243.414062 96.167969 243.003906 96.09375 C 242.589844 96.023438 242.175781 95.976562 241.757812 95.957031 C 241.339844 95.9375 240.921875 95.941406 240.503906 95.976562 C 240.089844 96.007812 239.675781 96.066406 239.265625 96.152344 C 238.855469 96.238281 238.453125 96.347656 238.058594 96.484375 C 237.664062 96.621094 237.277344 96.78125 236.902344 96.964844 C 236.527344 97.152344 236.164062 97.359375 235.816406 97.589844 C 235.464844 97.820312 235.132812 98.074219 234.816406 98.34375 C 225.132812 106.667969 214.070312 113.886719 213.960938 113.957031 C 213.835938 114.035156 213.734375 114.140625 213.667969 114.277344 C 209.445312 112.929688 205.144531 111.914062 200.765625 111.230469 C 196.382812 110.550781 191.976562 110.210938 187.542969 110.210938 C 183.113281 110.214844 178.707031 110.554688 174.328125 111.242188 C 169.945312 111.925781 165.644531 112.941406 161.425781 114.292969 C 161.359375 114.152344 161.261719 114.039062 161.128906 113.957031 C 161.015625 113.886719 149.945312 106.667969 140.269531 98.34375 C 139.953125 98.074219 139.621094 97.820312 139.269531 97.59375 C 138.921875 97.363281 138.558594 97.15625 138.183594 96.96875 C 137.808594 96.785156 137.425781 96.625 137.03125 96.488281 C 136.632812 96.355469 136.230469 96.246094 135.824219 96.160156 C 135.414062 96.074219 135 96.015625 134.582031 95.984375 C 134.167969 95.949219 133.75 95.945312 133.332031 95.964844 C 132.914062 95.984375 132.5 96.03125 132.089844 96.105469 C 131.675781 96.175781 131.269531 96.273438 130.871094 96.398438 C 130.472656 96.523438 130.082031 96.671875 129.703125 96.84375 C 129.320312 97.015625 128.953125 97.210938 128.597656 97.433594 C 128.242188 97.652344 127.902344 97.894531 127.578125 98.15625 C 127.253906 98.417969 126.945312 98.699219 126.65625 99 C 126.367188 99.304688 126.097656 99.621094 125.847656 99.957031 C 125.597656 100.292969 125.371094 100.640625 125.167969 101.007812 C 124.964844 101.371094 124.78125 101.746094 124.625 102.132812 C 124.46875 102.519531 124.335938 102.914062 124.226562 103.320312 C 122.484375 109.941406 121.582031 116.675781 121.523438 123.523438 C 121.460938 130.371094 122.246094 137.117188 123.871094 143.769531 C 121.398438 148.125 119.53125 152.722656 118.261719 157.5625 C 116.992188 162.402344 116.363281 167.328125 116.382812 172.332031 C 116.382812 189.074219 123.289062 200.074219 137.496094 205.925781 C 138.085938 206.175781 138.707031 206.410156 139.324219 206.636719 C 134.824219 208.191406 126.261719 212.8125 127.421875 225.363281 C 127.449219 225.679688 127.609375 225.902344 127.898438 226.027344 C 128.1875 226.15625 128.460938 226.125 128.710938 225.933594 C 128.890625 225.800781 146.515625 212.832031 161.449219 220.511719 C 161.503906 220.726562 161.558594 220.945312 161.613281 221.167969 C 160.199219 220.929688 158.808594 221.011719 157.433594 221.410156 C 155.160156 222 153.421875 223.160156 152.398438 224.722656 C 151.222656 226.523438 150.988281 228.800781 151.707031 231.488281 C 153.027344 236.433594 156.832031 239.847656 160.667969 239.847656 C 161.222656 239.847656 161.765625 239.777344 162.300781 239.636719 C 164.378906 239.082031 166.0625 237.484375 167.011719 235.242188 C 169.050781 238.449219 171.296875 240.074219 173.710938 240.074219 L 173.792969 240.074219 C 175.78125 240.046875 177.398438 239.316406 178.601562 237.910156 C 178.792969 237.6875 178.96875 237.453125 179.128906 237.207031 L 199.175781 237.207031 C 199.203125 237.207031 199.234375 237.207031 199.261719 237.207031 C 199.421875 237.453125 199.601562 237.691406 199.792969 237.917969 C 200.996094 239.324219 202.617188 240.054688 204.605469 240.082031 C 207.074219 240.121094 209.378906 238.457031 211.460938 235.136719 C 212.40625 237.445312 214.109375 239.078125 216.230469 239.644531 C 216.773438 239.789062 217.328125 239.859375 217.890625 239.859375 C 219.695312 239.816406 221.292969 239.214844 222.683594 238.058594 C 224.628906 236.519531 226.101562 234.191406 226.816406 231.496094 C 227.535156 228.804688 227.304688 226.527344 226.128906 224.730469 C 225.109375 223.167969 223.367188 222.019531 221.097656 221.417969 C 219.679688 221.007812 218.242188 220.9375 216.789062 221.203125 L 216.945312 220.566406 C 231.90625 212.78125 249.601562 225.808594 249.78125 225.941406 C 250.035156 226.128906 250.304688 226.160156 250.59375 226.03125 C 250.878906 225.902344 251.039062 225.683594 251.070312 225.371094 C 252.28125 212.425781 242.675781 207.355469 238.167969 205.703125 Z M 235.871094 99.570312 C 236.136719 99.339844 236.414062 99.128906 236.707031 98.9375 C 237 98.746094 237.300781 98.570312 237.617188 98.417969 C 237.929688 98.261719 238.253906 98.128906 238.582031 98.015625 C 238.914062 97.902344 239.25 97.808594 239.59375 97.738281 C 239.9375 97.667969 240.28125 97.617188 240.628906 97.589844 C 240.980469 97.5625 241.328125 97.558594 241.679688 97.574219 C 242.027344 97.59375 242.375 97.632812 242.71875 97.691406 C 243.0625 97.753906 243.402344 97.835938 243.738281 97.941406 C 244.070312 98.042969 244.398438 98.167969 244.714844 98.3125 C 245.035156 98.457031 245.34375 98.621094 245.640625 98.804688 C 245.9375 98.992188 246.222656 99.191406 246.496094 99.414062 C 246.765625 99.632812 247.023438 99.867188 247.265625 100.121094 C 247.507812 100.375 247.734375 100.640625 247.941406 100.921875 C 248.148438 101.203125 248.339844 101.496094 248.511719 101.800781 C 248.679688 102.105469 248.832031 102.417969 248.964844 102.742188 C 249.09375 103.066406 249.207031 103.398438 249.292969 103.738281 C 250.929688 109.945312 251.8125 116.257812 251.9375 122.675781 C 252.0625 129.089844 251.429688 135.433594 250.035156 141.699219 C 246.703125 136.394531 242.648438 131.714844 237.871094 127.660156 C 231.195312 122.027344 223.730469 117.769531 215.480469 114.890625 C 217.972656 113.230469 227.433594 106.828125 235.871094 99.570312 Z M 125.804688 103.738281 C 125.894531 103.398438 126.003906 103.066406 126.132812 102.742188 C 126.265625 102.417969 126.417969 102.105469 126.589844 101.800781 C 126.757812 101.496094 126.949219 101.203125 127.15625 100.921875 C 127.367188 100.640625 127.589844 100.375 127.832031 100.121094 C 128.074219 99.867188 128.332031 99.632812 128.605469 99.414062 C 128.875 99.191406 129.160156 98.992188 129.457031 98.804688 C 129.753906 98.621094 130.0625 98.457031 130.382812 98.3125 C 130.699219 98.167969 131.027344 98.042969 131.359375 97.941406 C 131.695312 97.835938 132.035156 97.753906 132.378906 97.691406 C 132.722656 97.632812 133.070312 97.59375 133.421875 97.574219 C 133.769531 97.558594 134.117188 97.5625 134.46875 97.589844 C 134.816406 97.617188 135.164062 97.667969 135.503906 97.738281 C 135.847656 97.808594 136.183594 97.902344 136.515625 98.015625 C 136.847656 98.128906 137.167969 98.261719 137.484375 98.417969 C 137.796875 98.570312 138.101562 98.746094 138.390625 98.9375 C 138.683594 99.128906 138.960938 99.339844 139.226562 99.570312 C 147.6875 106.839844 157.1875 113.265625 159.640625 114.90625 C 151.402344 117.78125 143.949219 122.035156 137.285156 127.660156 C 132.480469 131.734375 128.410156 136.441406 125.070312 141.777344 C 123.671875 135.5 123.03125 129.144531 123.15625 122.714844 C 123.28125 116.28125 124.164062 109.957031 125.804688 103.738281 Z M 118 172.332031 C 118 137.835938 147.910156 111.828125 187.574219 111.828125 C 215.332031 111.828125 238.3125 124.570312 249.605469 144.046875 C 249.644531 144.171875 249.707031 144.277344 249.796875 144.371094 C 252.226562 148.628906 254.066406 153.128906 255.3125 157.871094 C 256.558594 162.613281 257.175781 167.433594 257.15625 172.339844 C 257.15625 207.558594 225.65625 210.425781 187.582031 210.425781 C 170.378906 210.425781 154.519531 209.839844 142.296875 205.949219 C 127.464844 201.21875 118 191.632812 118 172.332031 Z M 211.511719 211.289062 L 189.210938 217.273438 L 167.996094 211.582031 C 174.023438 211.917969 180.546875 212.035156 187.574219 212.035156 C 196.328125 212.035156 204.300781 211.855469 211.511719 211.289062 Z M 139.050781 218.726562 C 135.492188 220.039062 132.125 221.730469 128.949219 223.808594 C 128.515625 210.488281 140.355469 207.859375 142.03125 207.554688 C 147.195312 209.167969 153.019531 210.230469 159.515625 210.914062 C 159.683594 212.007812 160.167969 214.929688 160.984375 218.5 C 154.652344 215.714844 147.125 215.78125 139.050781 218.726562 Z M 161.894531 238.078125 C 158.421875 239.003906 154.554688 235.863281 153.277344 231.074219 C 152.6875 228.847656 152.84375 227.007812 153.757812 225.609375 C 154.558594 224.382812 155.980469 223.472656 157.855469 222.960938 C 158.609375 222.753906 159.378906 222.644531 160.160156 222.632812 C 160.824219 222.625 161.46875 222.722656 162.097656 222.929688 C 162.164062 223.171875 162.234375 223.40625 162.300781 223.648438 C 162.371094 223.890625 162.429688 224.109375 162.496094 224.332031 C 162.585938 224.648438 162.683594 224.957031 162.789062 225.265625 C 162.851562 225.464844 162.914062 225.671875 162.976562 225.871094 L 163.011719 225.984375 C 162.886719 225.992188 162.769531 226.011719 162.652344 226.046875 C 162.53125 226.085938 162.421875 226.136719 162.316406 226.199219 C 162.210938 226.265625 162.117188 226.339844 162.03125 226.429688 C 161.945312 226.515625 161.871094 226.613281 161.808594 226.722656 C 161.75 226.828125 161.699219 226.941406 161.667969 227.058594 C 161.632812 227.175781 161.617188 227.296875 161.613281 227.421875 C 161.609375 227.542969 161.625 227.664062 161.652344 227.785156 C 161.679688 227.90625 161.722656 228.019531 161.777344 228.128906 C 161.867188 228.304688 161.984375 228.457031 162.136719 228.582031 C 162.285156 228.710938 162.453125 228.804688 162.640625 228.863281 C 162.828125 228.925781 163.015625 228.945312 163.214844 228.929688 C 163.410156 228.914062 163.59375 228.859375 163.769531 228.769531 C 163.824219 228.738281 163.878906 228.703125 163.933594 228.664062 L 163.949219 228.71875 L 164.035156 228.9375 C 164.175781 229.308594 164.316406 229.675781 164.460938 230.03125 C 164.523438 230.1875 164.585938 230.328125 164.652344 230.492188 C 164.761719 230.75 164.867188 231.011719 164.976562 231.261719 C 165.050781 231.433594 165.128906 231.59375 165.203125 231.757812 C 165.304688 231.980469 165.40625 232.203125 165.496094 232.417969 C 165.574219 232.585938 165.65625 232.746094 165.742188 232.910156 C 165.824219 233.074219 165.886719 233.203125 165.964844 233.359375 C 165.324219 235.816406 163.816406 237.5625 161.882812 238.078125 Z M 204.648438 238.460938 C 203.125 238.4375 201.945312 237.917969 201.042969 236.867188 C 198.253906 233.601562 199.214844 226.539062 199.226562 226.46875 C 199.25 226.25 199.195312 226.058594 199.058594 225.886719 C 198.925781 225.714844 198.753906 225.613281 198.539062 225.582031 C 198.320312 225.554688 198.125 225.601562 197.949219 225.726562 C 197.773438 225.855469 197.664062 226.023438 197.625 226.238281 C 197.585938 226.503906 196.882812 231.648438 198.457031 235.589844 L 179.972656 235.589844 C 181.542969 231.648438 180.839844 226.503906 180.800781 226.238281 C 180.769531 226.015625 180.664062 225.839844 180.488281 225.707031 C 180.308594 225.574219 180.109375 225.523438 179.886719 225.554688 C 179.667969 225.585938 179.488281 225.691406 179.355469 225.867188 C 179.222656 226.046875 179.171875 226.246094 179.203125 226.46875 C 179.203125 226.539062 180.175781 233.601562 177.382812 236.867188 C 176.484375 237.917969 175.300781 238.4375 173.78125 238.460938 C 171.609375 238.5 169.515625 236.621094 167.527344 232.898438 C 166.863281 231.632812 166.273438 230.332031 165.761719 228.992188 C 164.898438 226.75 164.160156 224.464844 163.542969 222.140625 C 162.324219 217.644531 161.558594 213.4375 161.226562 211.4375 L 189 218.898438 C 189.140625 218.9375 189.28125 218.9375 189.421875 218.898438 L 217.195312 211.445312 C 216.863281 213.453125 216.09375 217.6875 214.867188 222.203125 C 214.71875 222.746094 214.570312 223.277344 214.417969 223.792969 C 214.230469 224.433594 214.039062 225.050781 213.84375 225.65625 C 213.089844 228.101562 212.136719 230.46875 210.980469 232.753906 C 208.964844 236.570312 206.824219 238.5 204.636719 238.460938 Z M 220.699219 222.96875 C 222.582031 223.46875 223.996094 224.382812 224.796875 225.617188 C 225.710938 227.015625 225.871094 228.851562 225.277344 231.082031 C 224.648438 233.4375 223.375 235.472656 221.699219 236.792969 C 220.089844 238.0625 218.300781 238.519531 216.664062 238.085938 C 214.683594 237.558594 213.160156 235.757812 212.558594 233.238281 C 212.636719 233.085938 212.714844 232.917969 212.792969 232.757812 C 212.871094 232.601562 212.9375 232.464844 213.007812 232.320312 C 213.117188 232.089844 213.222656 231.851562 213.328125 231.613281 C 213.394531 231.472656 213.457031 231.335938 213.523438 231.1875 C 213.640625 230.914062 213.757812 230.628906 213.875 230.34375 C 213.921875 230.21875 213.976562 230.101562 214.027344 229.976562 C 214.1875 229.574219 214.347656 229.15625 214.507812 228.726562 L 214.519531 228.691406 C 214.539062 228.644531 214.554688 228.589844 214.574219 228.539062 C 214.707031 228.710938 214.871094 228.847656 215.0625 228.949219 C 215.238281 229.039062 215.421875 229.089844 215.617188 229.105469 C 215.8125 229.121094 216.003906 229.101562 216.191406 229.039062 C 216.375 228.980469 216.542969 228.886719 216.695312 228.757812 C 216.84375 228.632812 216.960938 228.480469 217.050781 228.308594 C 217.140625 228.132812 217.191406 227.949219 217.207031 227.753906 C 217.222656 227.558594 217.203125 227.367188 217.140625 227.179688 C 217.082031 226.996094 216.988281 226.828125 216.859375 226.675781 C 216.734375 226.527344 216.582031 226.410156 216.410156 226.320312 C 216.078125 226.152344 215.730469 226.113281 215.371094 226.210938 L 215.476562 225.886719 L 215.648438 225.324219 C 215.746094 225.015625 215.839844 224.707031 215.941406 224.382812 C 216.007812 224.167969 216.070312 223.941406 216.132812 223.71875 C 216.199219 223.5 216.269531 223.25 216.335938 223.007812 C 217.539062 222.542969 219.042969 222.53125 220.691406 222.96875 Z M 239.472656 218.726562 C 231.347656 215.765625 223.777344 215.710938 217.449219 218.539062 C 218.402344 214.355469 218.921875 211.046875 218.984375 210.519531 C 225.257812 209.699219 230.855469 208.460938 235.800781 206.648438 C 237.652344 207.078125 249.972656 210.472656 249.570312 223.808594 C 246.394531 221.730469 243.023438 220.035156 239.460938 218.726562 Z M 239.472656 218.726562 " fill-opacity="1" fill-rule="nonzero"/></g><path fill="#ffffff" d="M 218.054688 171.699219 C 218.054688 171.980469 218 172.253906 217.890625 172.515625 C 217.785156 172.773438 217.628906 173.003906 217.429688 173.203125 C 217.230469 173.402344 217 173.558594 216.738281 173.664062 C 216.480469 173.773438 216.207031 173.828125 215.925781 173.828125 C 215.644531 173.828125 215.371094 173.773438 215.109375 173.664062 C 214.851562 173.558594 214.621094 173.402344 214.421875 173.203125 C 214.222656 173.003906 214.066406 172.773438 213.960938 172.515625 C 213.851562 172.253906 213.796875 171.980469 213.796875 171.699219 C 213.796875 171.417969 213.851562 171.148438 213.960938 170.886719 C 214.066406 170.625 214.222656 170.394531 214.421875 170.195312 C 214.621094 169.996094 214.851562 169.84375 215.109375 169.734375 C 215.371094 169.628906 215.644531 169.574219 215.925781 169.574219 C 216.207031 169.574219 216.480469 169.628906 216.738281 169.734375 C 217 169.84375 217.230469 169.996094 217.429688 170.195312 C 217.628906 170.394531 217.785156 170.625 217.890625 170.886719 C 218 171.148438 218.054688 171.417969 218.054688 171.699219 Z M 218.054688 171.699219 " fill-opacity="1" fill-rule="nonzero"/><path fill="#ffffff" d="M 163.347656 171.699219 C 163.347656 171.980469 163.292969 172.253906 163.183594 172.515625 C 163.078125 172.773438 162.921875 173.003906 162.722656 173.203125 C 162.523438 173.402344 162.292969 173.558594 162.035156 173.664062 C 161.773438 173.773438 161.5 173.828125 161.21875 173.828125 C 160.9375 173.828125 160.664062 173.773438 160.402344 173.664062 C 160.144531 173.558594 159.914062 173.402344 159.714844 173.203125 C 159.515625 173.003906 159.359375 172.773438 159.253906 172.515625 C 159.144531 172.253906 159.089844 171.980469 159.089844 171.699219 C 159.089844 171.417969 159.144531 171.148438 159.253906 170.886719 C 159.359375 170.625 159.515625 170.394531 159.714844 170.195312 C 159.914062 169.996094 160.144531 169.84375 160.402344 169.734375 C 160.664062 169.628906 160.9375 169.574219 161.21875 169.574219 C 161.5 169.574219 161.773438 169.628906 162.035156 169.734375 C 162.292969 169.84375 162.523438 169.996094 162.722656 170.195312 C 162.921875 170.394531 163.078125 170.625 163.183594 170.886719 C 163.292969 171.148438 163.347656 171.417969 163.347656 171.699219 Z M 163.347656 171.699219 " fill-opacity="1" fill-rule="nonzero"/><g fill="#4f3215" fill-opacity="1"><g transform="translate(124.775253, 285.561757)"><g><path d="M 13.203125 -23.5 C 12.460938 -23.5 11.78125 -23.34375 11.15625 -23.03125 C 10.53125 -22.71875 10.21875 -22.128906 10.21875 -21.265625 C 10.21875 -20.585938 10.53125 -20.023438 11.15625 -19.578125 C 11.78125 -19.128906 12.585938 -18.726562 13.578125 -18.375 C 14.578125 -18.019531 15.640625 -17.640625 16.765625 -17.234375 C 17.890625 -16.828125 18.945312 -16.3125 19.9375 -15.6875 C 20.925781 -15.0625 21.734375 -14.257812 22.359375 -13.28125 C 22.984375 -12.300781 23.296875 -11.066406 23.296875 -9.578125 C 23.296875 -7.648438 22.785156 -5.960938 21.765625 -4.515625 C 20.753906 -3.078125 19.4375 -1.972656 17.8125 -1.203125 C 16.195312 -0.429688 14.46875 -0.046875 12.625 -0.046875 C 11.269531 -0.046875 9.992188 -0.117188 8.796875 -0.265625 C 7.597656 -0.410156 6.546875 -0.726562 5.640625 -1.21875 C 4.734375 -1.707031 4.019531 -2.429688 3.5 -3.390625 C 2.988281 -4.359375 2.734375 -5.660156 2.734375 -7.296875 C 2.734375 -7.484375 2.757812 -7.648438 2.8125 -7.796875 C 2.863281 -7.953125 3 -8.03125 3.21875 -8.03125 C 3.84375 -8.03125 4.46875 -7.925781 5.09375 -7.71875 C 5.71875 -7.507812 6.328125 -7.3125 6.921875 -7.125 C 7.660156 -6.90625 8.410156 -6.703125 9.171875 -6.515625 C 9.929688 -6.328125 10.691406 -6.234375 11.453125 -6.234375 C 11.960938 -6.234375 12.472656 -6.300781 12.984375 -6.4375 C 13.503906 -6.570312 13.941406 -6.816406 14.296875 -7.171875 C 14.648438 -7.523438 14.828125 -8 14.828125 -8.59375 C 14.828125 -9.457031 14.515625 -10.109375 13.890625 -10.546875 C 13.367188 -10.929688 12.8125 -11.195312 12.21875 -11.34375 C 11.625 -11.488281 11.023438 -11.644531 10.421875 -11.8125 C 9.421875 -12.113281 8.414062 -12.523438 7.40625 -13.046875 C 6.40625 -13.578125 5.484375 -14.21875 4.640625 -14.96875 C 3.796875 -15.71875 3.113281 -16.570312 2.59375 -17.53125 C 2.082031 -18.5 1.828125 -19.550781 1.828125 -20.6875 C 1.828125 -22.1875 2.144531 -23.492188 2.78125 -24.609375 C 3.425781 -25.722656 4.285156 -26.648438 5.359375 -27.390625 C 6.429688 -28.140625 7.617188 -28.695312 8.921875 -29.0625 C 10.222656 -29.425781 11.539062 -29.609375 12.875 -29.609375 C 14.125 -29.609375 15.3125 -29.566406 16.4375 -29.484375 C 17.5625 -29.410156 18.566406 -29.179688 19.453125 -28.796875 C 20.335938 -28.421875 21.035156 -27.789062 21.546875 -26.90625 C 22.066406 -26.019531 22.328125 -24.789062 22.328125 -23.21875 C 22.328125 -22.539062 21.972656 -22.203125 21.265625 -22.203125 C 20.660156 -22.203125 20.050781 -22.273438 19.4375 -22.421875 C 18.832031 -22.566406 18.242188 -22.710938 17.671875 -22.859375 C 16.941406 -23.015625 16.203125 -23.160156 15.453125 -23.296875 C 14.710938 -23.429688 13.960938 -23.5 13.203125 -23.5 Z M 13.203125 -23.5 "/></g></g></g><g fill="#4f3215" fill-opacity="1"><g transform="translate(147.827348, 285.561757)"><g><path d="M 7.9375 -29.046875 C 8.238281 -29.046875 8.546875 -29.015625 8.859375 -28.953125 C 9.171875 -28.898438 9.445312 -28.804688 9.6875 -28.671875 C 9.96875 -28.515625 10.164062 -28.300781 10.28125 -28.03125 C 10.40625 -27.757812 10.492188 -27.472656 10.546875 -27.171875 C 10.765625 -26.085938 10.894531 -24.972656 10.9375 -23.828125 C 10.976562 -22.691406 11 -21.566406 11 -20.453125 C 11 -18.929688 10.953125 -17.410156 10.859375 -15.890625 C 10.765625 -14.367188 10.71875 -12.847656 10.71875 -11.328125 C 10.71875 -10.453125 10.796875 -9.632812 10.953125 -8.875 C 11.117188 -8.113281 11.457031 -7.503906 11.96875 -7.046875 C 12.488281 -6.585938 13.265625 -6.359375 14.296875 -6.359375 C 15.816406 -6.359375 16.863281 -6.738281 17.4375 -7.5 C 18.007812 -8.257812 18.296875 -9.34375 18.296875 -10.75 C 18.296875 -12.976562 18.273438 -15.191406 18.234375 -17.390625 C 18.191406 -19.585938 18.171875 -21.800781 18.171875 -24.03125 C 18.171875 -24.738281 18.179688 -25.472656 18.203125 -26.234375 C 18.234375 -26.992188 18.425781 -27.640625 18.78125 -28.171875 C 19.132812 -28.703125 19.800781 -28.96875 20.78125 -28.96875 C 21.476562 -28.96875 22.171875 -28.925781 22.859375 -28.84375 C 23.554688 -28.757812 24.191406 -28.488281 24.765625 -28.03125 C 25.203125 -27.675781 25.539062 -27.050781 25.78125 -26.15625 C 26.03125 -25.257812 26.207031 -24.253906 26.3125 -23.140625 C 26.425781 -22.023438 26.492188 -20.972656 26.515625 -19.984375 C 26.546875 -18.992188 26.5625 -18.222656 26.5625 -17.671875 C 26.5625 -16.617188 26.550781 -15.5625 26.53125 -14.5 C 26.519531 -13.4375 26.515625 -12.378906 26.515625 -11.328125 C 26.515625 -10.535156 26.4375 -9.742188 26.28125 -8.953125 C 26.132812 -8.171875 25.890625 -7.414062 25.546875 -6.6875 C 24.535156 -4.539062 23.003906 -2.894531 20.953125 -1.75 C 18.898438 -0.613281 16.707031 -0.046875 14.375 -0.046875 C 12.175781 -0.046875 10.164062 -0.503906 8.34375 -1.421875 C 6.53125 -2.347656 5.078125 -3.648438 3.984375 -5.328125 C 2.898438 -7.015625 2.347656 -9 2.328125 -11.28125 C 2.328125 -12.039062 2.316406 -12.785156 2.296875 -13.515625 C 2.285156 -14.253906 2.28125 -15.003906 2.28125 -15.765625 C 2.28125 -16.253906 2.285156 -16.914062 2.296875 -17.75 C 2.316406 -18.59375 2.351562 -19.503906 2.40625 -20.484375 C 2.457031 -21.460938 2.53125 -22.429688 2.625 -23.390625 C 2.71875 -24.359375 2.851562 -25.222656 3.03125 -25.984375 C 3.207031 -26.742188 3.429688 -27.300781 3.703125 -27.65625 C 4.171875 -28.257812 4.820312 -28.640625 5.65625 -28.796875 C 6.5 -28.960938 7.257812 -29.046875 7.9375 -29.046875 Z M 7.9375 -29.046875 "/></g></g></g><g fill="#4f3215" fill-opacity="1"><g transform="translate(174.545005, 285.561757)"><g><path d="M 2.734375 -12.796875 L 2.734375 -17.1875 C 2.734375 -17.707031 2.742188 -18.382812 2.765625 -19.21875 C 2.796875 -20.0625 2.851562 -20.972656 2.9375 -21.953125 C 3.019531 -22.929688 3.15625 -23.878906 3.34375 -24.796875 C 3.53125 -25.722656 3.789062 -26.53125 4.125 -27.21875 C 4.46875 -27.914062 4.898438 -28.398438 5.421875 -28.671875 C 5.984375 -28.941406 6.757812 -29.144531 7.75 -29.28125 C 8.75 -29.414062 9.765625 -29.503906 10.796875 -29.546875 C 11.828125 -29.585938 12.664062 -29.609375 13.3125 -29.609375 C 14.863281 -29.609375 16.390625 -29.390625 17.890625 -28.953125 C 19.398438 -28.523438 20.765625 -27.875 21.984375 -27 C 23.210938 -26.132812 24.191406 -25.050781 24.921875 -23.75 C 25.660156 -22.445312 26.03125 -20.925781 26.03125 -19.1875 C 26.03125 -17.28125 25.691406 -15.726562 25.015625 -14.53125 C 24.335938 -13.34375 23.460938 -12.398438 22.390625 -11.703125 C 21.316406 -11.015625 20.164062 -10.519531 18.9375 -10.21875 C 17.71875 -9.925781 16.546875 -9.726562 15.421875 -9.625 C 14.296875 -9.53125 13.351562 -9.46875 12.59375 -9.4375 C 11.832031 -9.414062 11.382812 -9.335938 11.25 -9.203125 C 11.132812 -9.066406 11.039062 -8.816406 10.96875 -8.453125 C 10.90625 -8.085938 10.863281 -7.707031 10.84375 -7.3125 C 10.832031 -6.914062 10.828125 -6.625 10.828125 -6.4375 C 10.828125 -5.914062 10.847656 -5.40625 10.890625 -4.90625 C 10.929688 -4.40625 10.953125 -3.894531 10.953125 -3.375 C 10.953125 -2.507812 10.796875 -1.84375 10.484375 -1.375 C 10.171875 -0.914062 9.539062 -0.6875 8.59375 -0.6875 C 8.082031 -0.6875 7.546875 -0.710938 6.984375 -0.765625 C 6.429688 -0.828125 5.910156 -0.953125 5.421875 -1.140625 C 4.898438 -1.359375 4.476562 -1.8125 4.15625 -2.5 C 3.832031 -3.195312 3.566406 -4.023438 3.359375 -4.984375 C 3.160156 -5.953125 3.019531 -6.941406 2.9375 -7.953125 C 2.851562 -8.972656 2.796875 -9.914062 2.765625 -10.78125 C 2.742188 -11.65625 2.734375 -12.328125 2.734375 -12.796875 Z M 10.828125 -21.953125 L 10.828125 -17.234375 C 10.828125 -16.171875 11.023438 -15.515625 11.421875 -15.265625 C 11.816406 -15.023438 12.503906 -14.90625 13.484375 -14.90625 C 14.921875 -14.90625 16.09375 -15.363281 17 -16.28125 C 17.914062 -17.207031 18.375 -18.378906 18.375 -19.796875 C 18.375 -20.691406 18.109375 -21.425781 17.578125 -22 C 17.046875 -22.570312 16.390625 -23 15.609375 -23.28125 C 14.835938 -23.5625 14.0625 -23.703125 13.28125 -23.703125 L 12.265625 -23.703125 C 11.691406 -23.703125 11.316406 -23.523438 11.140625 -23.171875 C 10.960938 -22.816406 10.859375 -22.410156 10.828125 -21.953125 Z M 10.828125 -21.953125 "/></g></g></g><g fill="#4f3215" fill-opacity="1"><g transform="translate(199.226238, 285.561757)"><g><path d="M 11.078125 -9 C 11.078125 -7.5625 11.820312 -6.84375 13.3125 -6.84375 C 14.425781 -6.84375 15.550781 -6.863281 16.6875 -6.90625 C 17.832031 -6.945312 18.960938 -6.96875 20.078125 -6.96875 C 21.085938 -6.96875 21.726562 -6.789062 22 -6.4375 C 22.269531 -6.082031 22.40625 -5.429688 22.40625 -4.484375 C 22.40625 -3.640625 22.191406 -2.953125 21.765625 -2.421875 C 21.347656 -1.890625 20.8125 -1.488281 20.15625 -1.21875 C 19.507812 -0.945312 18.804688 -0.753906 18.046875 -0.640625 C 17.285156 -0.535156 16.578125 -0.484375 15.921875 -0.484375 C 14.484375 -0.484375 12.96875 -0.488281 11.375 -0.5 C 9.789062 -0.519531 8.320312 -0.800781 6.96875 -1.34375 C 5.46875 -1.96875 4.445312 -2.863281 3.90625 -4.03125 C 3.363281 -5.195312 3.039062 -6.539062 2.9375 -8.0625 C 2.875 -9.070312 2.828125 -10.070312 2.796875 -11.0625 C 2.773438 -12.050781 2.765625 -13.046875 2.765625 -14.046875 C 2.765625 -14.867188 2.757812 -15.675781 2.75 -16.46875 C 2.738281 -17.269531 2.734375 -18.082031 2.734375 -18.90625 C 2.734375 -21.476562 3.015625 -23.46875 3.578125 -24.875 C 4.148438 -26.289062 5 -27.304688 6.125 -27.921875 C 7.257812 -28.535156 8.660156 -28.910156 10.328125 -29.046875 C 11.992188 -29.179688 13.925781 -29.25 16.125 -29.25 C 17.050781 -29.25 18.015625 -29.125 19.015625 -28.875 C 20.023438 -28.632812 20.851562 -28.160156 21.5 -27.453125 C 21.882812 -27.046875 22.132812 -26.5625 22.25 -26 C 22.375 -25.445312 22.4375 -24.898438 22.4375 -24.359375 C 22.4375 -23.785156 22.195312 -23.375 21.71875 -23.125 C 21.25 -22.882812 20.707031 -22.742188 20.09375 -22.703125 C 19.488281 -22.660156 18.984375 -22.640625 18.578125 -22.640625 C 17.898438 -22.640625 17.226562 -22.675781 16.5625 -22.75 C 15.894531 -22.820312 15.222656 -22.859375 14.546875 -22.859375 C 13.785156 -22.859375 13.144531 -22.820312 12.625 -22.75 C 12.113281 -22.675781 11.734375 -22.457031 11.484375 -22.09375 C 11.242188 -21.726562 11.125 -21.082031 11.125 -20.15625 C 11.125 -19.507812 11.347656 -19.035156 11.796875 -18.734375 C 12.242188 -18.441406 12.769531 -18.253906 13.375 -18.171875 C 13.988281 -18.085938 14.539062 -18.046875 15.03125 -18.046875 C 15.65625 -18.046875 16.269531 -18.066406 16.875 -18.109375 C 17.488281 -18.148438 18.097656 -18.171875 18.703125 -18.171875 C 19.210938 -18.171875 19.738281 -18.109375 20.28125 -17.984375 C 20.820312 -17.859375 21.257812 -17.582031 21.59375 -17.15625 C 21.8125 -16.875 21.929688 -16.488281 21.953125 -16 C 21.984375 -15.519531 22 -15.113281 22 -14.78125 C 22 -14.507812 21.96875 -14.222656 21.90625 -13.921875 C 21.851562 -13.628906 21.757812 -13.375 21.625 -13.15625 C 21.4375 -12.882812 21.078125 -12.679688 20.546875 -12.546875 C 20.015625 -12.410156 19.414062 -12.320312 18.75 -12.28125 C 18.09375 -12.238281 17.460938 -12.222656 16.859375 -12.234375 C 16.265625 -12.253906 15.804688 -12.265625 15.484375 -12.265625 C 15.148438 -12.265625 14.734375 -12.265625 14.234375 -12.265625 C 13.734375 -12.265625 13.25 -12.226562 12.78125 -12.15625 C 12.320312 -12.09375 11.957031 -11.953125 11.6875 -11.734375 C 11.550781 -11.617188 11.445312 -11.472656 11.375 -11.296875 C 11.3125 -11.117188 11.253906 -10.9375 11.203125 -10.75 C 11.148438 -10.476562 11.113281 -10.191406 11.09375 -9.890625 C 11.082031 -9.597656 11.078125 -9.300781 11.078125 -9 Z M 11.078125 -9 "/></g></g></g><g fill="#4f3215" fill-opacity="1"><g transform="translate(222.278335, 285.561757)"><g><path d="M 10.921875 -4.078125 C 10.921875 -3.453125 10.878906 -2.878906 10.796875 -2.359375 C 10.710938 -1.847656 10.5 -1.441406 10.15625 -1.140625 C 9.820312 -0.835938 9.273438 -0.6875 8.515625 -0.6875 C 7.992188 -0.6875 7.460938 -0.710938 6.921875 -0.765625 C 6.378906 -0.828125 5.863281 -0.953125 5.375 -1.140625 C 4.800781 -1.378906 4.335938 -1.941406 3.984375 -2.828125 C 3.640625 -3.710938 3.378906 -4.769531 3.203125 -6 C 3.023438 -7.238281 2.898438 -8.503906 2.828125 -9.796875 C 2.765625 -11.085938 2.734375 -12.269531 2.734375 -13.34375 C 2.734375 -14.414062 2.734375 -15.222656 2.734375 -15.765625 C 2.734375 -17.171875 2.769531 -18.582031 2.84375 -20 C 2.925781 -21.414062 3.078125 -22.816406 3.296875 -24.203125 C 3.410156 -24.765625 3.585938 -25.453125 3.828125 -26.265625 C 4.078125 -27.085938 4.414062 -27.6875 4.84375 -28.0625 C 5.3125 -28.445312 5.957031 -28.742188 6.78125 -28.953125 C 7.613281 -29.171875 8.507812 -29.328125 9.46875 -29.421875 C 10.4375 -29.523438 11.367188 -29.585938 12.265625 -29.609375 C 13.160156 -29.640625 13.90625 -29.65625 14.5 -29.65625 C 15.882812 -29.65625 17.25 -29.453125 18.59375 -29.046875 C 19.9375 -28.640625 21.164062 -28.035156 22.28125 -27.234375 C 23.394531 -26.429688 24.285156 -25.445312 24.953125 -24.28125 C 25.617188 -23.113281 25.953125 -21.769531 25.953125 -20.25 C 25.953125 -19.726562 25.894531 -19.207031 25.78125 -18.6875 C 25.675781 -18.175781 25.472656 -17.691406 25.171875 -17.234375 C 24.734375 -16.523438 24.222656 -15.878906 23.640625 -15.296875 C 23.054688 -14.710938 22.414062 -14.191406 21.71875 -13.734375 C 21.632812 -13.703125 21.484375 -13.601562 21.265625 -13.4375 C 21.046875 -13.28125 20.9375 -13.144531 20.9375 -13.03125 C 20.9375 -12.945312 21.03125 -12.789062 21.21875 -12.5625 C 21.40625 -12.332031 21.613281 -12.109375 21.84375 -11.890625 C 22.082031 -11.671875 22.242188 -11.523438 22.328125 -11.453125 C 22.617188 -11.117188 22.945312 -10.546875 23.3125 -9.734375 C 23.6875 -8.921875 24.039062 -8.023438 24.375 -7.046875 C 24.71875 -6.066406 25 -5.140625 25.21875 -4.265625 C 25.4375 -3.398438 25.546875 -2.738281 25.546875 -2.28125 C 25.546875 -1.925781 25.328125 -1.640625 24.890625 -1.421875 C 24.453125 -1.203125 23.925781 -1.039062 23.3125 -0.9375 C 22.707031 -0.832031 22.117188 -0.757812 21.546875 -0.71875 C 20.972656 -0.675781 20.566406 -0.65625 20.328125 -0.65625 C 19.453125 -0.65625 18.785156 -0.890625 18.328125 -1.359375 C 17.867188 -1.835938 17.523438 -2.445312 17.296875 -3.1875 C 17.066406 -3.9375 16.851562 -4.738281 16.65625 -5.59375 C 16.46875 -6.457031 16.207031 -7.257812 15.875 -8 C 15.550781 -8.75 15.078125 -9.359375 14.453125 -9.828125 C 13.835938 -10.304688 12.957031 -10.546875 11.8125 -10.546875 C 11.488281 -10.546875 11.25 -10.304688 11.09375 -9.828125 C 10.945312 -9.359375 10.859375 -8.84375 10.828125 -8.28125 C 10.804688 -7.726562 10.796875 -7.332031 10.796875 -7.09375 C 10.796875 -6.601562 10.816406 -6.101562 10.859375 -5.59375 C 10.898438 -5.09375 10.921875 -4.585938 10.921875 -4.078125 Z M 10.828125 -21.671875 L 10.828125 -18.171875 C 10.828125 -17.785156 10.878906 -17.363281 10.984375 -16.90625 C 11.097656 -16.445312 11.414062 -16.21875 11.9375 -16.21875 C 12.9375 -16.21875 13.867188 -16.296875 14.734375 -16.453125 C 15.609375 -16.617188 16.320312 -16.976562 16.875 -17.53125 C 17.4375 -18.09375 17.71875 -18.984375 17.71875 -20.203125 C 17.71875 -20.929688 17.515625 -21.554688 17.109375 -22.078125 C 16.703125 -22.597656 16.175781 -23 15.53125 -23.28125 C 14.894531 -23.5625 14.253906 -23.703125 13.609375 -23.703125 L 12.421875 -23.703125 C 11.796875 -23.703125 11.375 -23.5 11.15625 -23.09375 C 10.9375 -22.6875 10.828125 -22.210938 10.828125 -21.671875 Z M 10.828125 -21.671875 "/></g></g></g><g fill="#4f3215" fill-opacity="1"><g transform="translate(154.347299, 311.612748)"><g><path d="M 1.640625 0 C 1.523438 0 1.425781 -0.0351562 1.34375 -0.109375 C 1.269531 -0.191406 1.234375 -0.296875 1.234375 -0.421875 L 1.234375 -11.3125 C 1.234375 -11.4375 1.269531 -11.535156 1.34375 -11.609375 C 1.425781 -11.691406 1.523438 -11.734375 1.640625 -11.734375 L 3.484375 -11.734375 C 3.609375 -11.734375 3.707031 -11.691406 3.78125 -11.609375 C 3.863281 -11.535156 3.90625 -11.4375 3.90625 -11.3125 L 3.90625 -7.125 L 8.453125 -7.125 L 8.453125 -11.3125 C 8.453125 -11.4375 8.488281 -11.535156 8.5625 -11.609375 C 8.644531 -11.691406 8.742188 -11.734375 8.859375 -11.734375 L 10.703125 -11.734375 C 10.816406 -11.734375 10.910156 -11.691406 10.984375 -11.609375 C 11.066406 -11.535156 11.109375 -11.4375 11.109375 -11.3125 L 11.109375 -0.421875 C 11.109375 -0.296875 11.066406 -0.191406 10.984375 -0.109375 C 10.910156 -0.0351562 10.816406 0 10.703125 0 L 8.859375 0 C 8.742188 0 8.644531 -0.0351562 8.5625 -0.109375 C 8.488281 -0.191406 8.453125 -0.296875 8.453125 -0.421875 L 8.453125 -4.75 L 3.90625 -4.75 L 3.90625 -0.421875 C 3.90625 -0.296875 3.863281 -0.191406 3.78125 -0.109375 C 3.707031 -0.0351562 3.609375 0 3.484375 0 Z M 1.640625 0 "/></g></g></g><g fill="#4f3215" fill-opacity="1"><g transform="translate(173.410727, 311.612748)"><g><path d="M 1.640625 0 C 1.523438 0 1.425781 -0.0351562 1.34375 -0.109375 C 1.269531 -0.191406 1.234375 -0.296875 1.234375 -0.421875 L 1.234375 -11.3125 C 1.234375 -11.4375 1.269531 -11.535156 1.34375 -11.609375 C 1.425781 -11.691406 1.523438 -11.734375 1.640625 -11.734375 L 9.25 -11.734375 C 9.375 -11.734375 9.472656 -11.691406 9.546875 -11.609375 C 9.628906 -11.535156 9.671875 -11.4375 9.671875 -11.3125 L 9.671875 -9.96875 C 9.671875 -9.851562 9.628906 -9.753906 9.546875 -9.671875 C 9.472656 -9.597656 9.375 -9.5625 9.25 -9.5625 L 3.828125 -9.5625 L 3.828125 -6.9375 L 8.890625 -6.9375 C 9.003906 -6.9375 9.101562 -6.894531 9.1875 -6.8125 C 9.269531 -6.738281 9.3125 -6.640625 9.3125 -6.515625 L 9.3125 -5.28125 C 9.3125 -5.164062 9.269531 -5.066406 9.1875 -4.984375 C 9.101562 -4.898438 9.003906 -4.859375 8.890625 -4.859375 L 3.828125 -4.859375 L 3.828125 -2.171875 L 9.390625 -2.171875 C 9.515625 -2.171875 9.613281 -2.128906 9.6875 -2.046875 C 9.769531 -1.972656 9.8125 -1.878906 9.8125 -1.765625 L 9.8125 -0.421875 C 9.8125 -0.296875 9.769531 -0.191406 9.6875 -0.109375 C 9.613281 -0.0351562 9.515625 0 9.390625 0 Z M 1.640625 0 "/></g></g></g><g fill="#4f3215" fill-opacity="1"><g transform="translate(190.697258, 311.612748)"><g><path d="M 1.640625 0 C 1.523438 0 1.425781 -0.0351562 1.34375 -0.109375 C 1.269531 -0.191406 1.234375 -0.296875 1.234375 -0.421875 L 1.234375 -11.3125 C 1.234375 -11.4375 1.269531 -11.535156 1.34375 -11.609375 C 1.425781 -11.691406 1.523438 -11.734375 1.640625 -11.734375 L 6.109375 -11.734375 C 7.503906 -11.734375 8.601562 -11.410156 9.40625 -10.765625 C 10.207031 -10.128906 10.609375 -9.207031 10.609375 -8 C 10.609375 -7.175781 10.410156 -6.488281 10.015625 -5.9375 C 9.628906 -5.394531 9.109375 -4.992188 8.453125 -4.734375 L 10.828125 -0.53125 C 10.859375 -0.46875 10.875 -0.410156 10.875 -0.359375 C 10.875 -0.265625 10.835938 -0.179688 10.765625 -0.109375 C 10.691406 -0.0351562 10.613281 0 10.53125 0 L 8.65625 0 C 8.445312 0 8.289062 -0.0507812 8.1875 -0.15625 C 8.09375 -0.257812 8.023438 -0.359375 7.984375 -0.453125 L 5.9375 -4.296875 L 3.90625 -4.296875 L 3.90625 -0.421875 C 3.90625 -0.296875 3.863281 -0.191406 3.78125 -0.109375 C 3.707031 -0.0351562 3.609375 0 3.484375 0 Z M 3.90625 -6.421875 L 6.0625 -6.421875 C 6.664062 -6.421875 7.113281 -6.5625 7.40625 -6.84375 C 7.707031 -7.125 7.859375 -7.515625 7.859375 -8.015625 C 7.859375 -8.515625 7.710938 -8.910156 7.421875 -9.203125 C 7.128906 -9.492188 6.675781 -9.640625 6.0625 -9.640625 L 3.90625 -9.640625 Z M 3.90625 -6.421875 "/></g></g></g><g fill="#4f3215" fill-opacity="1"><g transform="translate(208.838713, 311.612748)"><g><path d="M 5.90625 0.171875 C 4.882812 0.171875 4.003906 0.00390625 3.265625 -0.328125 C 2.523438 -0.671875 1.945312 -1.175781 1.53125 -1.84375 C 1.125 -2.519531 0.90625 -3.375 0.875 -4.40625 C 0.863281 -4.882812 0.859375 -5.363281 0.859375 -5.84375 C 0.859375 -6.320312 0.863281 -6.804688 0.875 -7.296875 C 0.90625 -8.296875 1.128906 -9.140625 1.546875 -9.828125 C 1.960938 -10.515625 2.539062 -11.03125 3.28125 -11.375 C 4.03125 -11.726562 4.90625 -11.90625 5.90625 -11.90625 C 6.882812 -11.90625 7.742188 -11.726562 8.484375 -11.375 C 9.234375 -11.03125 9.816406 -10.515625 10.234375 -9.828125 C 10.660156 -9.140625 10.894531 -8.296875 10.9375 -7.296875 C 10.957031 -6.804688 10.96875 -6.320312 10.96875 -5.84375 C 10.96875 -5.363281 10.957031 -4.882812 10.9375 -4.40625 C 10.894531 -3.375 10.664062 -2.519531 10.25 -1.84375 C 9.832031 -1.175781 9.253906 -0.671875 8.515625 -0.328125 C 7.773438 0.00390625 6.90625 0.171875 5.90625 0.171875 Z M 5.90625 -2.015625 C 6.550781 -2.015625 7.082031 -2.207031 7.5 -2.59375 C 7.914062 -2.988281 8.140625 -3.625 8.171875 -4.5 C 8.191406 -4.988281 8.203125 -5.445312 8.203125 -5.875 C 8.203125 -6.300781 8.191406 -6.757812 8.171875 -7.25 C 8.148438 -7.820312 8.039062 -8.289062 7.84375 -8.65625 C 7.644531 -9.03125 7.378906 -9.300781 7.046875 -9.46875 C 6.722656 -9.632812 6.34375 -9.71875 5.90625 -9.71875 C 5.476562 -9.71875 5.097656 -9.632812 4.765625 -9.46875 C 4.429688 -9.300781 4.160156 -9.03125 3.953125 -8.65625 C 3.753906 -8.289062 3.644531 -7.820312 3.625 -7.25 C 3.613281 -6.757812 3.609375 -6.300781 3.609375 -5.875 C 3.609375 -5.445312 3.613281 -4.988281 3.625 -4.5 C 3.65625 -3.625 3.875 -2.988281 4.28125 -2.59375 C 4.695312 -2.207031 5.238281 -2.015625 5.90625 -2.015625 Z M 5.90625 -2.015625 "/></g></g></g></svg>